<?xml version="1.0" encoding="UTF-8"?>
<svg width="91px" height="86px" viewBox="0 0 91 86" version="1.1" xmlns="http://www.w3.org/2000/svg" xmlns:xlink="http://www.w3.org/1999/xlink">
    <!-- Generator: Sketch 50.1 (55044) - http://www.bohemiancoding.com/sketch -->
    <title>SVG_sprite</title>
    <desc>Created with Sketch.</desc>

<defs>
<style><![CDATA[
		g{ display: none; }
		g:target { display: inline; }
	]]></style>

</defs>

                <g id="search_in_filters" transform="translate(41.000000, 36.000000)" fill="#333333" fill-rule="nonzero">
                    <path d="M5.6875,11.375 C2.55125,11.375 0,8.82375 0,5.6875 C0,2.55125 2.55125,0 5.6875,0 C8.82375,0 11.375,2.55125 11.375,5.6875 C11.375,8.82375 8.82375,11.375 5.6875,11.375 Z M5.6875,1.625 C3.4474375,1.625 1.625,3.4474375 1.625,5.6875 C1.625,7.9275625 3.4474375,9.75 5.6875,9.75 C7.9275625,9.75 9.75,7.9275625 9.75,5.6875 C9.75,3.4474375 7.9275625,1.625 5.6875,1.625 Z" id="Shape"></path>
                    <path d="M12.7096385,11.3086128 L10.3385517,8.9375 C9.93131531,9.46166159 9.46165583,9.93132622 8.9375,10.3385671 L11.3085868,12.7096799 C11.5018011,12.9028963 11.7554569,13 12.0091126,13 C12.2627684,13 12.5164241,12.9028963 12.7096385,12.7096799 C13.097058,12.3222561 13.097058,11.6960366 12.7096385,11.3086128 Z" id="Shape"></path>
                </g>
                <g id="to_expand_black" transform="translate(43.000000, 38.000000)" fill="#666666" fill-rule="nonzero">
                    <rect id="Minimize" x="0" y="3" width="8" height="2"></rect>
                    <rect id="Minimize" transform="translate(4.000000, 4.000000) rotate(90.000000) translate(-4.000000, -4.000000) " x="0" y="3" width="8" height="2"></rect>
                </g>
                <g id="to_collapse_black" transform="translate(43.000000, 41.000000)" fill="#666666" fill-rule="nonzero">
                    <rect x="0" y="0" width="8" height="2"></rect>
                </g>
                <g id="checked" transform="translate(38.000000, 33.000000)" fill="#F7F7F7">
                    <rect id="Checkbox" stroke="#D3D3D3" x="0" y="0" width="18" height="18" rx="3"></rect>
                    <polyline id="Shape" stroke="#FF7B39" stroke-width="2" stroke-linecap="round" stroke-linejoin="round" points="14 5 7.125 12 4 8.81818182"></polyline>
                </g>
                <g id="radio_selected" transform="translate(38.000000, 33.000000)">
                    <rect id="Checkbox" stroke="#D3D3D3" fill="#FFFFFF" x="0" y="0" width="18" height="18" rx="9"></rect>
                    <circle id="Oval" fill="#FF7B39" cx="9" cy="9" r="5"></circle>
                </g>
                <g id="radio" transform="translate(38.000000, 33.000000)" fill="#F7F7F7" stroke="#D3D3D3">
                    <rect id="Checkbox" x="0" y="0" width="18" height="18" rx="9"></rect>
                </g>
                <g id="unchecked" transform="translate(38.000000, 33.000000)" fill="#F7F7F7" stroke="#D3D3D3">
                    <rect id="Checkbox" x="0" y="0" width="18" height="18" rx="3"></rect>
                </g>
                <g id="morning" transform="translate(39.000000, 33.000000)" stroke="#666666">
                    <circle id="Oval" stroke-width="2" stroke-linecap="round" stroke-linejoin="round" cx="5" cy="5" r="1"></circle>
                    <path d="M5,0 L5,0.909090909" id="Shape" stroke-width="1.5" stroke-linecap="round" stroke-linejoin="round"></path>
                    <path d="M5,9.09090909 L5,10" id="Shape" stroke-width="1.5" stroke-linecap="round" stroke-linejoin="round"></path>
                    <path d="M1.46363636,1.46363636 L2.10909091,2.10909091" id="Shape" stroke-width="1.5" stroke-linecap="round" stroke-linejoin="round"></path>
                    <path d="M7.89090909,7.89090909 L8.53636364,8.53636364" id="Shape" stroke-width="1.5" stroke-linecap="round" stroke-linejoin="round"></path>
                    <path d="M0,5 L0.909090909,5" id="Shape" stroke-width="1.5" stroke-linecap="round" stroke-linejoin="round"></path>
                    <path d="M9.09090909,5 L10,5" id="Shape" stroke-width="1.5" stroke-linecap="round" stroke-linejoin="round"></path>
                    <path d="M1.46363636,8.53636364 L2.10909091,7.89090909" id="Shape" stroke-width="1.5" stroke-linecap="round" stroke-linejoin="round"></path>
                    <path d="M7.89090909,2.10909091 L8.53636364,1.46363636" id="Shape" stroke-width="1.5" stroke-linecap="round" stroke-linejoin="round"></path>
                    <polygon id="Path-2" stroke-width="1.19999993" fill="#FFFFFF" points="0 18 17 18 11.4658864 10 6.87256769 15.2730144 3.37575922 13.1089833"></polygon>
                </g>
                <g id="noon" transform="translate(38.000000, 33.000000)" stroke="#666666" stroke-linecap="round" stroke-linejoin="round" stroke-width="1.5">
                    <circle id="Oval" cx="9" cy="9" r="3.75"></circle>
                    <path d="M9,0 L9,1.63636364" id="Shape"></path>
                    <path d="M9,16.3636364 L9,18" id="Shape"></path>
                    <path d="M2.63454545,2.63454545 L3.79636364,3.79636364" id="Shape"></path>
                    <path d="M14.2036364,14.2036364 L15.3654545,15.3654545" id="Shape"></path>
                    <path d="M0,9 L1.63636364,9" id="Shape"></path>
                    <path d="M16.3636364,9 L18,9" id="Shape"></path>
                    <path d="M2.63454545,15.3654545 L3.79636364,14.2036364" id="Shape"></path>
                    <path d="M14.2036364,3.79636364 L15.3654545,2.63454545" id="Shape"></path>
                </g>
                <g id="evening" transform="translate(40.000000, 33.000000)" stroke="#666666" stroke-linecap="round" stroke-linejoin="round" stroke-width="1.5">
                    <path d="M11.0909091,9 C11.0909091,6.7406533 9.2593467,4.90909091 7,4.90909091 C4.7406533,4.90909091 2.90909091,6.7406533 2.90909091,9" id="Oval"></path>
                    <path d="M2.20363636,12.7963636 L11.6266004,12.7963636" id="Shape"></path>
                    <path d="M4.20363636,16.7963636 L9.62363644,16.7963636" id="Shape"></path>
                    <path d="M7,0 L7,1.63636364" id="Shape"></path>
                    <path d="M0.634545455,2.63454545 L1.79636364,3.79636364" id="Shape"></path>
                    <path d="M12.2036364,3.79636364 L13.3654545,2.63454545" id="Shape"></path>
                </g>
                <g id="night" transform="translate(41.000000, 36.000000)" stroke="#666666" stroke-linecap="round" stroke-linejoin="round" stroke-width="1.5">
                    <path d="M13,7.07055556 C12.68392,10.4908616 9.76120927,13.0748475 6.32794967,12.9693549 C2.89469007,12.8638622 0.136137795,10.1053099 0.0306451243,6.67205033 C-0.0748475466,3.23879073 2.50913837,0.316079994 5.92944444,-8.8817842e-16 C4.44192806,2.01243735 4.6505742,4.8103273 6.42012345,6.57987655 C8.1896727,8.3494258 10.9875627,8.55807194 13,7.07055556 Z" id="Shape"></path>
                </g>
                <g id="morning_selected" transform="translate(39.000000, 33.000000)" stroke="#FFFFFF">
                    <circle id="Oval" stroke-width="2" stroke-linecap="round" stroke-linejoin="round" cx="5" cy="5" r="1"></circle>
                    <path d="M5,0 L5,0.909090909" id="Shape" stroke-width="1.5" stroke-linecap="round" stroke-linejoin="round"></path>
                    <path d="M5,9.09090909 L5,10" id="Shape" stroke-width="1.5" stroke-linecap="round" stroke-linejoin="round"></path>
                    <path d="M1.46363636,1.46363636 L2.10909091,2.10909091" id="Shape" stroke-width="1.5" stroke-linecap="round" stroke-linejoin="round"></path>
                    <path d="M7.89090909,7.89090909 L8.53636364,8.53636364" id="Shape" stroke-width="1.5" stroke-linecap="round" stroke-linejoin="round"></path>
                    <path d="M0,5 L0.909090909,5" id="Shape" stroke-width="1.5" stroke-linecap="round" stroke-linejoin="round"></path>
                    <path d="M9.09090909,5 L10,5" id="Shape" stroke-width="1.5" stroke-linecap="round" stroke-linejoin="round"></path>
                    <path d="M1.46363636,8.53636364 L2.10909091,7.89090909" id="Shape" stroke-width="1.5" stroke-linecap="round" stroke-linejoin="round"></path>
                    <path d="M7.89090909,2.10909091 L8.53636364,1.46363636" id="Shape" stroke-width="1.5" stroke-linecap="round" stroke-linejoin="round"></path>
                    <polygon id="Path-2" stroke-width="1.19999993" fill="#FF7B39" points="0 18 17 18 11.4658864 10 6.87256769 15.2730144 3.37575922 13.1089833"></polygon>
                </g>
                <g id="go_to_top" transform="translate(40.000000, 35.000000)" stroke="#666666" stroke-linecap="round" stroke-linejoin="round" stroke-width="2">
                    <path d="M7,14 L7,0" id="Shape"></path>
                    <polyline id="Shape" points="0 7 7 0 14 7"></polyline>
                </g>
                <g id="to_expand_orange" transform="translate(44.000000, 39.000000)" stroke="#FF7B39" stroke-linecap="round" stroke-linejoin="round" stroke-width="1.5">
                    <path d="M3,0 L3,6" id="Shape"></path>
                    <path d="M0,3 L6,3" id="Shape"></path>
                </g>
                <g id="sort" transform="translate(43.000000, 39.000000)" fill="#FF7B39">
                    <polygon points="4 0 8 6 0 6"></polygon>
                </g>
                <g id="to_collapse_black" transform="translate(44.000000, 42.000000)" stroke="#FF7B39" stroke-linecap="round" stroke-linejoin="round" stroke-width="1.5">
                    <path d="M0,0 L6,0" id="Shape"></path>
                </g>
                <g id="noon_selected" transform="translate(38.000000, 33.000000)" stroke="#FFFFFF" stroke-linecap="round" stroke-linejoin="round" stroke-width="1.5">
                    <circle id="Oval" cx="9" cy="9" r="3.75"></circle>
                    <path d="M9,0 L9,1.63636364" id="Shape"></path>
                    <path d="M9,16.3636364 L9,18" id="Shape"></path>
                    <path d="M2.63454545,2.63454545 L3.79636364,3.79636364" id="Shape"></path>
                    <path d="M14.2036364,14.2036364 L15.3654545,15.3654545" id="Shape"></path>
                    <path d="M0,9 L1.63636364,9" id="Shape"></path>
                    <path d="M16.3636364,9 L18,9" id="Shape"></path>
                    <path d="M2.63454545,15.3654545 L3.79636364,14.2036364" id="Shape"></path>
                    <path d="M14.2036364,3.79636364 L15.3654545,2.63454545" id="Shape"></path>
                </g>
                <g id="evening_selected" transform="translate(40.000000, 33.000000)" stroke="#FFFFFF" stroke-linecap="round" stroke-linejoin="round" stroke-width="1.5">
                    <path d="M11.0909091,9 C11.0909091,6.7406533 9.2593467,4.90909091 7,4.90909091 C4.7406533,4.90909091 2.90909091,6.7406533 2.90909091,9" id="Oval"></path>
                    <path d="M2.20363636,12.7963636 L11.6266004,12.7963636" id="Shape"></path>
                    <path d="M4.20363636,16.7963636 L9.62363644,16.7963636" id="Shape"></path>
                    <path d="M7,0 L7,1.63636364" id="Shape"></path>
                    <path d="M0.634545455,2.63454545 L1.79636364,3.79636364" id="Shape"></path>
                    <path d="M12.2036364,3.79636364 L13.3654545,2.63454545" id="Shape"></path>
                </g>
                <g id="night_selected" transform="translate(41.000000, 36.000000)" stroke="#FFFFFF" stroke-linecap="round" stroke-linejoin="round" stroke-width="1.5">
                    <path d="M13,7.07055556 C12.68392,10.4908616 9.76120927,13.0748475 6.32794967,12.9693549 C2.89469007,12.8638622 0.136137795,10.1053099 0.0306451243,6.67205033 C-0.0748475466,3.23879073 2.50913837,0.316079994 5.92944444,-8.8817842e-16 C4.44192806,2.01243735 4.6505742,4.8103273 6.42012345,6.57987655 C8.1896727,8.3494258 10.9875627,8.55807194 13,7.07055556 Z" id="Shape"></path>
                </g>
                <g id="all_airlines" transform="translate(47.000000, 42.000000) rotate(45.000000) translate(-47.000000, -42.000000) translate(39.000000, 33.000000)" fill="#333333" fill-rule="nonzero">
                    <path d="M16,12.0272768 L16,10.3090829 L9.2631392,6.01361824 L9.2631392,1.28863536 C9.2631392,0.575577036 8.69894136,1.57859836e-16 7.99998026,1.57859836e-16 C7.30101916,1.57859836e-16 6.73682133,0.575577036 6.73682133,1.28863536 L6.73682133,6.01361824 L4.61991556e-14,10.3090829 L4.61991556e-14,12.0272768 L6.7368608,9.87956458 L6.7368608,14.6045475 L5.05263573,15.8931828 L5.05263573,17.1818182 L8.00001974,16.3227414 L10.9473643,17.1818182 L10.9473643,15.8931828 L9.2631392,14.6045475 L9.2631392,9.87952431 L16,12.0272768 Z" id="Shape"></path>
                </g>
                <g id="arrow_carousel" transform="translate(36.000000, 31.000000)">
                    <circle id="Oval" stroke="#E5E5E5" stroke-width="1.20000005" cx="11.5" cy="11.5" r="11.5"></circle>
                    <polyline id="Shape" stroke="#666666" stroke-width="1.43999997" stroke-linecap="round" stroke-linejoin="round" transform="translate(10.894737, 11.500000) scale(-1, 1) translate(-10.894737, -11.500000) " points="8.47368421 15.7368421 13.3157895 11.5 8.47368421 7.26315789"></polyline>
                </g>
                <g id="info_red" transform="translate(41.000000, 36.000000)" stroke="#DF1C1C" stroke-linecap="round" stroke-linejoin="round" stroke-width="1.19999993">
                    <circle id="Oval" cx="6" cy="6" r="6"></circle>
                    <path d="M6,9.4 L6,6.4" id="Shape"></path>
                    <path d="M6,3.4 L6,4.00000002" id="Shape"></path>
                </g>
                <g id="close" transform="translate(42.000000, 37.000000)" stroke="#333333" stroke-linecap="round" stroke-linejoin="round" stroke-width="1.5999999">
                    <path d="M10,0 L0,10" id="Shape"></path>
                    <path d="M0,0 L10,10" id="Shape"></path>
                </g>
                <g id="arrow" transform="translate(42.000000, 39.000000)" stroke="#333333" stroke-linecap="round" stroke-linejoin="round" stroke-width="1.5">
                    <path d="M0,3 L10,3" id="Shape"></path>
                    <polyline id="Shape" points="7 0 10 3 7 6"></polyline>
                </g>
                <g id="seat_left" transform="translate(44.000000, 37.000000)" fill="#333333" fill-rule="nonzero">
                    <path d="M5.82546774,6.40331522 L5.82546774,6.40283696 L5.82106452,6.40331522 C5.81756452,6.40331522 5.81383871,6.40283696 5.80977419,6.40283696 C5.66469355,6.4016413 5.5263871,6.41658696 5.39767742,6.44372826 L3.27125806,6.64758696 L2.61517742,6.66791304 L2.59225806,6.58194565 L3.03190323,6.14457609 L6.94569355,5.79544565 L6.9123871,5.60473913 C6.86146774,5.2968587 6.3,5.09072826 5.65430645,5.14082609 L5.65430645,5.14046739 L5.64990323,5.14118478 C5.64617742,5.14154348 5.64267742,5.14154348 5.6386129,5.14178261 C5.56579032,5.14788043 5.49545161,5.15720652 5.42782258,5.16904348 L2.32241935,5.57090217 L1.48230645,2.42298913 C2.11264516,1.84704348 2.11196774,0.763663043 1.47880645,0 L1.3195,0 L1.071,0 L0.214629032,0 L0.149145161,0 C0.149145161,0 0,0.0956521739 0,0.213782609 L0,2.36679348 C0,2.48480435 0.0667258065,2.58057609 0.149145161,2.58057609 L0.165064516,2.58057609 L0.928177419,5.44021739 L0.78016129,5.47070652 L1.49991935,8.16821739 L1.64804839,8.13784783 L1.7883871,8.66369565 L1.87904839,8.64504348 L1.87904839,8.66321739 L2.56640323,8.66321739 C2.39896774,8.91059783 2.29803226,9.22876087 2.29803226,9.57633696 C2.29803226,9.57908696 2.29848387,9.58183696 2.29848387,9.58458696 C2.29374194,9.95392391 2.43227419,10.2918152 2.66327419,10.5478043 C2.67580645,10.5643043 2.6881129,10.5808043 2.69827419,10.5987391 C2.70685484,10.6019674 2.71475806,10.6060326 2.7231129,10.6095 C2.88490323,10.7685217 3.08485484,10.8898804 3.30851613,10.9599457 L3.30851613,10.970587 L6.88382258,10.970587 L6.88382258,10.6189457 L3.46556452,10.6189457 C3.11940323,10.4625543 2.84674194,10.176913 2.71182258,9.82479348 L2.68766129,9.60658696 C2.74716129,9.21022826 2.93932258,8.87173913 3.20577419,8.66333696 L6.9126129,8.66333696 L6.93203226,8.66333696 L6.99379032,8.66333696 L6.99379032,7.10552174 C6.99616129,6.72482609 6.4751129,6.4126413 5.82546774,6.40331522 Z" id="Shape"></path>
                </g>
                <g id="info_black" transform="translate(41.000000, 36.000000)" stroke="#666666" stroke-linecap="round" stroke-linejoin="round" stroke-width="1.19999993">
                    <circle id="Oval" cx="6" cy="6" r="6"></circle>
                    <path d="M6,9.4 L6,6.4" id="Shape"></path>
                    <path d="M6,3.4 L6,4.00000002" id="Shape"></path>
                </g>
                <g id="between_flights" transform="translate(47.000000, 42.000000) rotate(90.000000) translate(-47.000000, -42.000000) translate(39.000000, 33.000000)" fill="#FFFFFF" fill-rule="nonzero" opacity="0.300000012">
                    <path d="M16,12.0272768 L16,10.3090829 L9.2631392,6.01361824 L9.2631392,1.28863536 C9.2631392,0.575577036 8.69894136,1.57859836e-16 7.99998026,1.57859836e-16 C7.30101916,1.57859836e-16 6.73682133,0.575577036 6.73682133,1.28863536 L6.73682133,6.01361824 L4.61991556e-14,10.3090829 L4.61991556e-14,12.0272768 L6.7368608,9.87956458 L6.7368608,14.6045475 L5.05263573,15.8931828 L5.05263573,17.1818182 L8.00001974,16.3227414 L10.9473643,17.1818182 L10.9473643,15.8931828 L9.2631392,14.6045475 L9.2631392,9.87952431 L16,12.0272768 Z" id="Shape"></path>
                </g>
                <g id="calendar" transform="translate(40.000000, 35.000000)" fill="#84979B" fill-rule="nonzero">
                    <path d="M13.3117013,1.69868618 L12.4805455,1.69868618 L12.4805455,0 L10.8181948,0 L10.8181948,1.69868618 L4.16883117,1.69868618 L4.16883117,0 L2.50648052,0 L2.50648052,1.69868618 L1.67532468,1.69868618 C0.756896104,1.69868618 0.0213116883,2.45882904 0.0213116883,3.39737237 L0.012974026,15.2880562 C0.012974026,16.2265597 0.756857143,16.9867424 1.67532468,16.9867424 L13.3117013,16.9867424 C14.2301299,16.9867424 14.9740519,16.2265995 14.9740519,15.2880562 L14.9740519,3.39733255 C14.974013,2.45882904 14.2301299,1.69868618 13.3117013,1.69868618 Z M13.3117013,15.2880562 L1.67532468,15.2880562 L1.67532468,5.94534192 L13.3117013,5.94534192 L13.3117013,15.2880562 Z" id="Shape"></path>
                    <polygon id="Shape" points="11.2586883 8.54431148 10.3776623 7.6440281 6.32154545 11.7888033 4.55949351 9.98819672 3.67842857 10.8884801 6.32154545 13.58937"></polygon>
                </g>
                <g id="carousel_arrow" transform="translate(33.000000, 29.000000)">
                    <circle id="Oval" stroke="#E5E5E5" stroke-width="1.44000011" cx="14" cy="14" r="14"></circle>
                    <g id="chevron-right" stroke-linecap="round" stroke-linejoin="round" transform="translate(13.210526, 14.342105) scale(-1, 1) translate(-13.210526, -14.342105) translate(10.210526, 8.842105)" stroke="#666666" stroke-width="1.72800003">
                        <polyline id="Shape" points="0 10.3157895 5.89473684 5.15789474 0 0"></polyline>
                    </g>
                </g>
                <g id="close_white" transform="translate(41.000000, 37.000000)" stroke="#FFFFFF" stroke-width="2">
                    <path d="M12,0 L0,12" id="Shape"></path>
                    <path d="M0,0 L12,12" id="Shape"></path>
                </g>
                <g id="dropdown_white" transform="translate(43.000000, 41.000000)" stroke="#FFFFFF" stroke-width="1.5">
                    <polyline points="0 0 4 4 8 0"></polyline>
                </g>
                <g id="dropdown" transform="translate(44.000000, 42.000000)" stroke="#333333" stroke-width="1.5">
                    <polyline points="0 0 3.5 3 7 0"></polyline>
                </g>
                <g id="flight_icon" transform="translate(37.000000, 33.000000)" fill="#D7D7D7" fill-rule="nonzero">
                    <g id="flight" transform="translate(10.500000, 10.000000) rotate(90.000000) translate(-10.500000, -10.000000) translate(0.500000, -0.500000)">
                        <path d="M20,14.7000049 L20,12.5999902 L11.578924,7.34997785 L11.578924,1.57499877 C11.578924,0.703483044 10.8736767,-3.46944695e-18 9.99997533,-3.46944695e-18 C9.12627395,-3.46944695e-18 8.42102666,0.703483044 8.42102666,1.57499877 L8.42102666,7.34997785 L4.61991556e-14,12.5999902 L4.61991556e-14,14.7000049 L8.421076,12.0750234 L8.421076,17.8500025 L6.31579467,19.4250012 L6.31579467,21 L10.0000247,19.9500172 L13.6842053,21 L13.6842053,19.4250012 L11.578924,17.8500025 L11.578924,12.0749742 L20,14.7000049 Z" id="Shape"></path>
                    </g>
                </g>
                <g id="landing" transform="translate(35.000000, 32.000000)" fill="#84979B" fill-rule="nonzero">
                    <path d="M21.0688837,5 C20.8475612,5 20.6313658,5.03640187 20.4262857,5.10755828 L6.41078315,9.95326552 C6.15271035,10.04198 5.86219387,10.0072656 5.63402174,9.85824299 L3.55500167,8.50052567 C3.38068358,8.38625756 3.15082979,8.4097219 3.00300805,8.55408383 L2.12801328,9.41129556 C1.9742032,9.56196554 1.95709952,9.80094822 2.08699725,9.97130574 L4.71202261,13.3998714 C4.82141233,13.5413405 5.00766609,13.6040996 5.17944118,13.5559655 L12.2837442,11.6227692 L10.7695557,16.4454541 C10.7208287,16.5986554 10.7644287,16.7656379 10.8814884,16.8777765 C10.9643818,16.9572901 11.0745919,17 11.1873859,17 C11.2335289,17 11.2805333,16.9928884 11.325815,16.9778214 L13.9508403,16.12069 C14.0525191,16.087623 14.1388168,16.0185558 14.1926708,15.9269083 L17.6089772,10.069181 L21.678956,8.73995031 C22.4693757,8.48212384 23,7.76099723 23,6.89213369 C23.000041,5.84877422 22.1335776,5 21.0688837,5 Z" id="Shape" transform="translate(12.500000, 11.000000) rotate(35.000000) translate(-12.500000, -11.000000) "></path>
                    <path d="M15.9958696,21.9444609 L2.42413051,21.9444609 C2.1896997,21.9444609 2,22.180526 2,22.4722057 C2,22.7639349 2.1896997,23 2.42413051,23 L15.9958696,23 C16.2303004,23 16.4200001,22.7639349 16.4200001,22.4722057 C16.4200001,22.180526 16.2303004,21.9444609 15.9958696,21.9444609 Z" id="Shape"></path>
                </g>
                <g id="location" transform="translate(42.000000, 36.000000)" fill="#84979B" fill-rule="nonzero">
                    <path d="M11,5.72727276 C11,10.1818182 5.5,14.0000001 5.5,14.0000001 C5.5,14.0000001 0,10.1818182 0,5.72727276 C4.52632625e-08,2.56418738 2.46243391,7.92470844e-08 5.5,7.92470845e-08 C8.53756609,7.92470847e-08 11,2.56418738 11,5.72727276 Z M5.5,7.68181818 C6.85002939,7.68181818 7.94444444,6.62358214 7.94444444,5.31818182 C7.94444444,4.0127815 6.85002939,2.95454545 5.5,2.95454545 C4.14997061,2.95454545 3.05555556,4.0127815 3.05555556,5.31818182 C3.05555556,6.62358214 4.14997061,7.68181818 5.5,7.68181818 Z" id="Combined-Shape"></path>
                </g>
                <g id="logo_fb" transform="translate(42.000000, 35.000000)" fill="#FFFFFF" fill-rule="nonzero">
                    <path d="M3.02293,16 L3,9 L0,9 L0,6 L3,6 L3,4 C3,1.3008 4.67151,0 7.07938,0 C8.23277,0 9.22406,0.08587 9.51294,0.12425 L9.51294,2.94507 L7.84296,2.94583 C6.53343,2.94583 6.27987,3.5681 6.27987,4.48124 L6.27987,6 L10,6 L9,9 L6.27986,9 L6.27986,16 L3.02293,16 Z" id="Shape"></path>
                </g>
                <g id="logo_instagram" transform="translate(39.000000, 35.000000)" fill="#FFFFFF" fill-rule="nonzero">
                    <circle id="Oval" cx="12.145" cy="3.892" r="1"></circle>
                    <path d="M8,12 C5.794,12 4,10.206 4,8 C4,5.794 5.794,4 8,4 C10.206,4 12,5.794 12,8 C12,10.206 10.206,12 8,12 Z M8,6 C6.897,6 6,6.897 6,8 C6,9.103 6.897,10 8,10 C9.103,10 10,9.103 10,8 C10,6.897 9.103,6 8,6 Z" id="Shape"></path>
                    <path d="M12,16 L4,16 C1.944,16 0,14.056 0,12 L0,4 C0,1.944 1.944,0 4,0 L12,0 C14.056,0 16,1.944 16,4 L16,12 C16,14.056 14.056,16 12,16 Z M4,2 C3.065,2 2,3.065 2,4 L2,12 C2,12.953 3.047,14 4,14 L12,14 C12.935,14 14,12.935 14,12 L14,4 C14,3.065 12.935,2 12,2 L4,2 Z" id="Shape"></path>
                </g>
                <g id="logo_pinterest" transform="translate(39.000000, 35.000000)" fill="#FFFFFF" fill-rule="nonzero">
                    <path d="M8,0 C3.6,0 0,3.6 0,8 C0,11.4 2.1,14.3 5.1,15.4 C5,14.8 5,13.8 5.1,13.1 C5.2,12.5 6,9.1 6,9.1 C6,9.1 5.8,8.7 5.8,8 C5.8,6.9 6.5,6 7.3,6 C8,6 8.3,6.5 8.3,7.1 C8.3,7.8 7.9,8.8 7.6,9.8 C7.4,10.6 8,11.2 8.8,11.2 C10.2,11.2 11.3,9.7 11.3,7.5 C11.3,5.6 9.9,4.2 8,4.2 C5.7,4.2 4.4,5.9 4.4,7.7 C4.4,8.4 4.7,9.1 5,9.5 C5,9.7 5,9.8 5,9.9 C4.9,10.2 4.8,10.7 4.8,10.8 C4.8,10.9 4.7,11 4.5,10.9 C3.5,10.4 2.9,9 2.9,7.8 C2.9,5.3 4.7,3 8.2,3 C11,3 13.1,5 13.1,7.6 C13.1,10.4 11.4,12.6 8.9,12.6 C8.1,12.6 7.3,12.2 7.1,11.7 C7.1,11.7 6.7,13.2 6.6,13.6 C6.4,14.3 5.9,15.2 5.6,15.7 C6.4,15.9 7.2,16 8,16 C12.4,16 16,12.4 16,8 C16,3.6 12.4,0 8,0 Z" id="Shape"></path>
                </g>
                <g id="logo_twitter" transform="translate(39.000000, 36.000000)" fill="#FFFFFF" fill-rule="nonzero">
                    <path d="M16,2 C15.4,2.3 14.8,2.4 14.1,2.5 C14.8,2.1 15.3,1.5 15.5,0.7 C14.9,1.1 14.2,1.3 13.4,1.5 C12.8,0.9 11.9,0.5 11,0.5 C9.3,0.5 7.8,2 7.8,3.8 C7.8,4.1 7.8,4.3 7.9,4.5 C5.2,4.4 2.7,3.1 1.1,1.1 C0.8,1.6 0.7,2.1 0.7,2.8 C0.7,3.9 1.3,4.9 2.2,5.5 C1.7,5.5 1.2,5.3 0.7,5.1 C0.7,5.1 0.7,5.1 0.7,5.1 C0.7,6.7 1.8,8 3.3,8.3 C3,8.4 2.7,8.4 2.4,8.4 C2.2,8.4 2,8.4 1.8,8.3 C2.2,9.6 3.4,10.6 4.9,10.6 C3.8,11.5 2.4,12 0.8,12 C0.5,12 0.3,12 0,12 C1.5,12.9 3.2,13.5 5,13.5 C11,13.5 14.3,8.5 14.3,4.2 C14.3,4.1 14.3,3.9 14.3,3.8 C15,3.3 15.6,2.7 16,2 Z" id="Shape"></path>
                </g>
                <g id="passenger" transform="translate(38.000000, 35.000000)" fill="#84979B" fill-rule="nonzero">
                    <path d="M3.18474707,3.27848768 C4.04384075,3.84124631 5.22566745,3.64474138 5.82370023,2.84080049 C6.42649415,2.03237931 6.21762763,0.920261084 5.35857845,0.353064039 C4.49948478,-0.214174877 3.31765808,-0.0176699507 2.71486417,0.790751232 C2.11683138,1.59913054 2.32569789,2.71124877 3.18474707,3.27848768 Z" id="Shape"></path>
                    <path d="M3.76382436,12.9436576 L1.89853162,4.49335961 L0,4.49335961 L1.89377049,13.2071995 C2.24498126,15.3867586 4.23842389,16.9991207 6.58312178,16.9991207 L13.2896323,16.9991207 L13.2896323,15.2125714 L6.57836066,15.2125714 C5.17347307,15.2125296 3.97740749,14.2478005 3.76382436,12.9436576 Z" id="Shape"></path>
                    <path d="M13.5079321,11.6394729 L8.8755808,11.6394729 L7.90257611,7.97706158 C9.39765808,8.77208374 11.0161288,9.3571601 12.7912717,9.06686207 L12.7912717,7.16868227 C11.2439953,7.44114286 9.52580796,6.9230197 8.33926464,6.05656404 L6.77774941,4.91316749 C6.56416628,4.75685961 6.31262763,4.64518719 6.05156674,4.57371182 C5.75255035,4.49331773 5.42981733,4.471 5.11180094,4.52011576 L5.08808431,4.52459606 C3.92525761,4.71666256 3.14683607,5.75730542 3.35094145,6.85154433 L4.63720141,12.1396749 C4.89350117,13.4036626 6.06585012,14.319234 7.4327822,14.319234 L13.9351874,14.319234 L17.5613396,16.9990369 L18.9852272,15.6591355 L13.5079321,11.6394729 Z" id="Shape"></path>
                </g>
                <g id="switch" transform="translate(30.000000, 26.000000)">
                    <circle id="Oval-2" fill="#000000" fill-rule="nonzero" cx="17" cy="17" r="17"></circle>
                    <g id="Group-6" stroke-linecap="round" stroke-linejoin="round" transform="translate(9.000000, 10.000000)" stroke="#FFFFFF" stroke-width="1.2902398">
                        <g id="arrow-left" transform="translate(0.228571, 8.000000)">
                            <path d="M14.4,0.86666667 L-1.0658141e-14,0.86666667" id="Shape"></path>
                            <path d="M4.11428571,5.06666667 L-1.0658141e-14,0.86666667" id="Shape"></path>
                        </g>
                        <g id="arrow-right" transform="translate(0.228571, 0.000000)">
                            <path d="M0,4.2 L14.4000004,4.2" id="Shape"></path>
                            <path d="M10.2857143,0 L14.4,4.2" id="Shape"></path>
                        </g>
                    </g>
                </g>
                <g id="take_off" transform="translate(37.000000, 34.000000)" fill="#84979B" fill-rule="nonzero">
                    <path d="M19.0688837,0 C18.8475612,0 18.6313658,0.036401867 18.4262857,0.107558276 L4.41078315,4.95326552 C4.15271035,5.04198 3.86219387,5.00726564 3.63402174,4.85824299 L1.55500167,3.50052567 C1.38068358,3.38625756 1.15082979,3.4097219 1.00300805,3.55408383 L0.128013275,4.41129556 C-0.0257968038,4.56196554 -0.0429004846,4.80094822 0.0869972542,4.97130574 L2.71202261,8.39987143 C2.82141233,8.54134049 3.00766609,8.60409956 3.17944118,8.55596553 L10.2837442,6.62276925 L8.76955571,11.4454541 C8.72082868,11.5986554 8.76442871,11.7656379 8.88148844,11.8777765 C8.96438181,11.9572901 9.07459186,12 9.18738592,12 C9.23352894,12 9.28053331,11.9928884 9.32581499,11.9778214 L11.9508403,11.12069 C12.0525191,11.087623 12.1388168,11.0185558 12.1926708,10.9269083 L15.6089772,5.06918096 L19.678956,3.73995031 C20.4693757,3.48212384 21,2.76099723 21,1.89213369 C21.000041,0.848774216 20.1335776,0 19.0688837,0 Z" id="Shape"></path>
                    <path d="M13.9958696,16.9444609 L0.424130513,16.9444609 C0.189699698,16.9444609 0,17.180526 0,17.4722057 C0,17.7639349 0.189699698,18 0.424130513,18 L13.9958696,18 C14.2303004,18 14.4200001,17.7639349 14.4200001,17.4722057 C14.4200001,17.180526 14.2303004,16.9444609 13.9958696,16.9444609 Z" id="Shape"></path>
                </g>
                <g id="step3_review_selected" transform="translate(39.000000, 35.000000)" stroke="#FFFFFF" stroke-linecap="round" stroke-linejoin="round" stroke-width="1.5999999">
                    <path d="M8.125,0 L1.625,0 C0.727537282,0 0,0.7163444 0,1.6 L0,14.4 C0,15.2836556 0.727537282,16 1.625,16 L11.375,16 C12.2724627,16 13,15.2836556 13,14.4 L13,4.8 L8.125,0 Z" id="Shape" fill="#333333"></path>
                    <polyline id="Shape" fill="#333333" points="8.125 0 8.125 4.8 13 4.8"></polyline>
                    <path d="M9.75,8.8 L3.25,8.8" id="Shape"></path>
                    <path d="M9.75,12 L3.25,12" id="Shape"></path>
                    <polyline id="Shape" points="4.875 5.6 4.0625 5.6 3.25 5.6"></polyline>
                </g>
                <g id="step3_payment_selected" transform="translate(37.000000, 36.000000)" fill="#FFFFFF" fill-rule="nonzero">
                    <path d="M16.9647216,0.461117045 C16.6809473,0.171421023 16.3398154,0.0265892045 15.9413576,0.0265892045 L1.44919991,0.0265892045 C1.05067866,0.0265892045 0.7096102,0.171388636 0.425645568,0.461117045 C0.141839557,0.750877841 0,1.09906364 0,1.50593352 L0,12.7496045 C0,13.1565716 0.141839557,13.5047898 0.425645568,13.7945182 C0.7096102,14.0842466 1.05067866,14.2291108 1.44919991,14.2291108 L15.9413576,14.2291108 C16.3398154,14.2291108 16.6809156,14.0842466 16.9647216,13.7945182 C17.2484959,13.5048222 17.3905258,13.156604 17.3905258,12.7496045 L17.3905258,1.50593352 C17.3905258,1.09906364 17.2484959,0.750877841 16.9647216,0.461117045 Z M16.2310326,12.7498313 C16.2310326,12.8300847 16.2023855,12.8992295 16.1450279,12.9579784 C16.087702,13.0162739 16.0197485,13.0455188 15.9413576,13.0455188 L1.44919991,13.0455188 C1.3707456,13.0455188 1.30279205,13.0162739 1.24543443,12.9577517 C1.18810853,12.8990352 1.159398,12.829858 1.159398,12.7496045 L1.159398,7.12785 L16.2310644,7.12785 L16.2310644,12.7498313 L16.2310326,12.7498313 Z M16.2310326,3.57704148 L1.15936627,3.57704148 L1.15936627,1.50580398 C1.15936627,1.42568011 1.18798163,1.35647045 1.2454027,1.29778636 C1.30279205,1.23939375 1.3707456,1.21008409 1.44916818,1.21008409 L15.9413259,1.21008409 C16.0197168,1.21008409 16.0876703,1.2392642 16.1449962,1.29778636 C16.2023538,1.35647045 16.2310009,1.42568011 16.2310009,1.50580398 L16.2310326,3.57704148 Z" id="Shape"></path>
                    <rect id="Rectangle-path" x="2.31879599" y="10.6783994" width="2.31870082" height="1.18365682"></rect>
                    <rect id="Rectangle-path" x="5.79692653" y="10.6783994" width="3.47806709" height="1.18365682"></rect>
                </g>
                <g id="step2_passenger_selected" transform="translate(37.000000, 35.000000)" fill="#FFFFFF" fill-rule="nonzero">
                    <path d="M3.01712881,3.08563547 C3.83100703,3.61529064 4.95063232,3.43034483 5.5171897,2.67369458 C6.08825761,1.91282759 5.89038407,0.866128079 5.07654801,0.332295567 C4.26266979,-0.201576355 3.1430445,-0.0166305419 2.57197658,0.744236453 C2.0054192,1.50506404 2.20329274,2.55176355 3.01712881,3.08563547 Z" id="Shape"></path>
                    <path d="M3.56572834,12.182266 L1.7986089,4.22904433 L0,4.22904433 L1.79409836,12.4303054 C2.12682436,14.4816552 4.01534895,15.9991724 6.23664169,15.9991724 L12.590178,15.9991724 L12.590178,14.3177143 L6.23213115,14.3177143 C4.90118501,14.3176749 3.76807026,13.4096946 3.56572834,12.182266 Z" id="Shape"></path>
                    <path d="M12.7969883,10.954798 L8.40844496,10.954798 L7.48665105,7.50782266 C8.9030445,8.25607882 10.4363326,8.80673892 12.1180468,8.53351724 L12.1180468,6.74699507 C10.6522061,7.00342857 9.02444965,6.51578325 7.90035597,5.70029557 L6.42102576,4.62415764 C6.21868384,4.47704433 5.98038407,4.37194089 5.73306323,4.30466995 C5.44978454,4.22900493 5.14403747,4.208 4.84275878,4.2542266 L4.8202904,4.25844335 C3.71866511,4.43921182 2.98121311,5.41864039 3.17457611,6.44851232 L4.39313817,11.4255764 C4.63594848,12.6152118 5.74659485,13.4769261 7.04158314,13.4769261 L13.2017564,13.4769261 L16.6370585,15.9990936 L17.9860047,14.7380099 L12.7969883,10.954798 Z" id="Shape"></path>
                </g>
                <g id="step1_flight_selected" transform="translate(45.500000, 43.500000) rotate(45.000000) translate(-45.500000, -43.500000) translate(38.000000, 35.000000)" fill="#FFFFFF" fill-rule="nonzero">
                    <path d="M15,11.3590947 L15,9.73635603 L8.684193,5.67952834 L8.684193,1.2170445 C8.684193,0.543600534 8.15525753,6.50521303e-16 7.4999815,6.50521303e-16 C6.84470546,6.50521303e-16 6.31577,0.543600534 6.31577,1.2170445 L6.31577,5.67952834 L4.61991556e-14,9.73635603 L4.61991556e-14,11.3590947 L6.315807,9.33069988 L6.315807,13.7931837 L4.736846,15.0102282 L4.736846,16.2272727 L7.5000185,15.4159224 L10.263154,16.2272727 L10.263154,15.0102282 L8.684193,13.7931837 L8.684193,9.33066185 L15,11.3590947 Z" id="Shape"></path>
                </g>
                <g id="step1_flight" transform="translate(46.000000, 43.500000) rotate(45.000000) translate(-46.000000, -43.500000) translate(38.000000, 35.000000)" fill="#999999" fill-rule="nonzero">
                    <path d="M15.0416667,11.6375039 L15.0416667,9.97499221 L8.70831576,5.81873247 L8.70831576,1.24687403 C8.70831576,0.556924077 8.17791102,5.89805982e-16 7.52081478,5.89805982e-16 C6.86371854,5.89805982e-16 6.3333138,0.556924077 6.3333138,1.24687403 L6.3333138,5.81873247 L4.61991556e-14,9.97499221 L4.61991556e-14,11.6375039 L6.33335091,9.55939351 L6.33335091,14.1312519 L4.75000391,15.378126 L4.75000391,16.625 L7.52085189,15.7937636 L10.2916628,16.625 L10.2916628,15.378126 L8.70831576,14.1312519 L8.70831576,9.55935454 L15.0416667,11.6375039 Z" id="Shape"></path>
                </g>
                <g id="step2_passenger" transform="translate(37.000000, 35.000000)" fill="#999999" fill-rule="nonzero">
                    <path d="M3.01712881,3.08563547 C3.83100703,3.61529064 4.95063232,3.43034483 5.5171897,2.67369458 C6.08825761,1.91282759 5.89038407,0.866128079 5.07654801,0.332295567 C4.26266979,-0.201576355 3.1430445,-0.0166305419 2.57197658,0.744236453 C2.0054192,1.50506404 2.20329274,2.55176355 3.01712881,3.08563547 Z" id="Shape"></path>
                    <path d="M3.56572834,12.182266 L1.7986089,4.22904433 L0,4.22904433 L1.79409836,12.4303054 C2.12682436,14.4816552 4.01534895,15.9991724 6.23664169,15.9991724 L12.590178,15.9991724 L12.590178,14.3177143 L6.23213115,14.3177143 C4.90118501,14.3176749 3.76807026,13.4096946 3.56572834,12.182266 Z" id="Shape"></path>
                    <path d="M12.7969883,10.954798 L8.40844496,10.954798 L7.48665105,7.50782266 C8.9030445,8.25607882 10.4363326,8.80673892 12.1180468,8.53351724 L12.1180468,6.74699507 C10.6522061,7.00342857 9.02444965,6.51578325 7.90035597,5.70029557 L6.42102576,4.62415764 C6.21868384,4.47704433 5.98038407,4.37194089 5.73306323,4.30466995 C5.44978454,4.22900493 5.14403747,4.208 4.84275878,4.2542266 L4.8202904,4.25844335 C3.71866511,4.43921182 2.98121311,5.41864039 3.17457611,6.44851232 L4.39313817,11.4255764 C4.63594848,12.6152118 5.74659485,13.4769261 7.04158314,13.4769261 L13.2017564,13.4769261 L16.6370585,15.9990936 L17.9860047,14.7380099 L12.7969883,10.954798 Z" id="Shape"></path>
                </g>
                <g id="step3_review" transform="translate(39.000000, 35.000000)" stroke="#999999" stroke-linecap="round" stroke-linejoin="round" stroke-width="1.5999999">
                    <path d="M8.125,0 L1.625,0 C0.727537282,0 0,0.7163444 0,1.6 L0,14.4 C0,15.2836556 0.727537282,16 1.625,16 L11.375,16 C12.2724627,16 13,15.2836556 13,14.4 L13,4.8 L8.125,0 Z" id="Shape" fill="#FFFFFF"></path>
                    <polyline id="Shape" fill="#FFFFFF" points="8.125 0 8.125 4.8 13 4.8"></polyline>
                    <path d="M9.75,8.8 L3.25,8.8" id="Shape"></path>
                    <path d="M9.75,12 L3.25,12" id="Shape"></path>
                    <polyline id="Shape" points="4.875 5.6 4.0625 5.6 3.25 5.6"></polyline>
                </g>
                <g id="step3_payment" transform="translate(37.000000, 36.000000)" fill="#999999" fill-rule="nonzero">
                    <path d="M16.9647216,0.461117045 C16.6809473,0.171421023 16.3398154,0.0265892045 15.9413576,0.0265892045 L1.44919991,0.0265892045 C1.05067866,0.0265892045 0.7096102,0.171388636 0.425645568,0.461117045 C0.141839557,0.750877841 0,1.09906364 0,1.50593352 L0,12.7496045 C0,13.1565716 0.141839557,13.5047898 0.425645568,13.7945182 C0.7096102,14.0842466 1.05067866,14.2291108 1.44919991,14.2291108 L15.9413576,14.2291108 C16.3398154,14.2291108 16.6809156,14.0842466 16.9647216,13.7945182 C17.2484959,13.5048222 17.3905258,13.156604 17.3905258,12.7496045 L17.3905258,1.50593352 C17.3905258,1.09906364 17.2484959,0.750877841 16.9647216,0.461117045 Z M16.2310326,12.7498313 C16.2310326,12.8300847 16.2023855,12.8992295 16.1450279,12.9579784 C16.087702,13.0162739 16.0197485,13.0455188 15.9413576,13.0455188 L1.44919991,13.0455188 C1.3707456,13.0455188 1.30279205,13.0162739 1.24543443,12.9577517 C1.18810853,12.8990352 1.159398,12.829858 1.159398,12.7496045 L1.159398,7.12785 L16.2310644,7.12785 L16.2310644,12.7498313 L16.2310326,12.7498313 Z M16.2310326,3.57704148 L1.15936627,3.57704148 L1.15936627,1.50580398 C1.15936627,1.42568011 1.18798163,1.35647045 1.2454027,1.29778636 C1.30279205,1.23939375 1.3707456,1.21008409 1.44916818,1.21008409 L15.9413259,1.21008409 C16.0197168,1.21008409 16.0876703,1.2392642 16.1449962,1.29778636 C16.2023538,1.35647045 16.2310009,1.42568011 16.2310009,1.50580398 L16.2310326,3.57704148 Z" id="Shape"></path>
                    <rect id="Rectangle-path" x="2.31879599" y="10.6783994" width="2.31870082" height="1.18365682"></rect>
                    <rect id="Rectangle-path" x="5.79692653" y="10.6783994" width="3.47806709" height="1.18365682"></rect>
                </g>
                <g id="step_done" transform="translate(39.000000, 38.000000)" stroke="#FFFFFF" stroke-linecap="round" stroke-linejoin="round" stroke-width="2.39999986">
                    <polyline id="Shape" points="14 0 4.375 10 0 5.45454545"></polyline>
                </g>
                <g id="info_orange" transform="translate(41.000000, 38.000000)" stroke="#FF7B39" stroke-linecap="round" stroke-linejoin="round">
                    <circle id="Oval" cx="5" cy="5" r="5"></circle>
                    <path d="M5,8 L5,5" id="Shape"></path>
                    <path d="M5,3 L5,2.5" id="Shape"></path>
                </g>
                <g id="info_yellow" transform="translate(39.000000, 36.000000)" stroke="#D8A53D" stroke-linecap="round" stroke-linejoin="round" stroke-width="1.4000001">
                    <circle id="Oval" cx="7" cy="7" r="7"></circle>
                    <path d="M7,10.5 L7,7" id="Shape"></path>
                    <path d="M7,4.2 L7,3.5" id="Shape"></path>
                </g>
                <g id="fare_increase" transform="translate(3.000000, 0.000000)">
                    <circle id="Oval-2" fill="#DF1C1C" fill-rule="nonzero" opacity="0.049821" cx="43" cy="43" r="43"></circle>
                    <circle id="Oval-2" fill="#FFD8D8" fill-rule="nonzero" opacity="0.8" cx="43" cy="43" r="30"></circle>
                    <path d="M31.5,55 L31.5,33" id="Shape" stroke="#DF1C1C" stroke-width="2" stroke-linecap="round" stroke-linejoin="round"></path>
                    <polyline id="Shape" stroke="#DF1C1C" stroke-width="2" stroke-linecap="round" stroke-linejoin="round" points="25 39.4166667 31.5 33 38 39.4166667"></polyline>
                    <text id="₹" font-family="PingFangSC-Regular, PingFang SC" font-size="30" font-weight="normal" fill="#DF1C1C">
                        <tspan x="42" y="55">₹</tspan>
                    </text>
                </g>
                <g id="timeout" transform="translate(3.000000, 0.000000)" fill-rule="nonzero">
                    <circle id="Oval-2" fill="#DF1C1C" opacity="0.049821" cx="43" cy="43" r="43"></circle>
                    <circle id="Oval-2" fill="#FFD8D8" opacity="0.8" cx="43" cy="43" r="30"></circle>
                    <path d="M47.1992854,58.7806004 C46.8947103,58.8569978 46.5841803,58.9248445 46.2759528,58.9819827 C45.4702103,59.1327797 44.9375215,59.9127365 45.0865536,60.724419 C45.1601567,61.1237473 45.3854914,61.4563477 45.6914163,61.673473 C46.0067103,61.8968315 46.4079936,61.9976825 46.8168991,61.9211253 C47.1839614,61.8525594 47.553882,61.7719266 47.9168948,61.6807451 C48.7125536,61.4814406 49.1972854,60.6701577 48.9987876,59.869743 C48.8007661,59.0686091 47.9954206,58.5811361 47.1992854,58.7806004 Z" id="Shape" fill="#DF1C1C"></path>
                    <path d="M58.1798691,38.7488963 C58.283882,39.0643952 58.4824592,39.3219568 58.7332811,39.4999244 C59.1051867,39.7635594 59.591824,39.8522635 60.0562296,39.6977106 C60.8348176,39.4375119 61.2566652,38.5925054 60.9990944,37.8092721 C60.8817425,37.4522181 60.7515279,37.0940454 60.6128176,36.7453024 C60.3082425,35.9789309 59.4445386,35.6058143 58.6827039,35.9123629 C57.9216631,36.2187516 57.5507897,37.0882916 57.855603,37.8549028 C57.9721609,38.1480259 58.0813348,38.4489006 58.1798691,38.7488963 Z" id="Shape" fill="#DF1C1C"></path>
                    <path d="M52.0242918,56.6468272 C51.7623541,56.820879 51.492,56.9893369 51.2196609,57.1471663 C50.509118,57.5596803 50.2657597,58.4738121 50.6754592,59.1886393 C50.7866974,59.3830691 50.9348562,59.5420173 51.105485,59.663486 C51.5635386,59.9878553 52.1856309,60.0364428 52.7035515,59.7361274 C53.0273412,59.5481706 53.3493047,59.3482268 53.6612639,59.1406112 C54.3452082,58.6858229 54.5334635,57.7585853 54.0813648,57.0698898 C53.6293455,56.3809546 52.7084742,56.1917192 52.0242918,56.6468272 Z" id="Shape" fill="#DF1C1C"></path>
                    <path d="M61.9223476,42.9229438 C61.8900322,42.0980756 61.1997361,41.4560497 60.3799399,41.4882549 C59.561176,41.5207797 58.9228069,42.2157883 58.9549635,43.0403369 C58.9672704,43.3555961 58.9704464,43.6755702 58.963221,43.9905097 C58.9517082,44.5077905 59.2030858,44.968892 59.5937296,45.2460324 C59.8264485,45.4109741 60.1088712,45.5107862 60.4151137,45.5178186 C61.2346717,45.5361188 61.9138519,44.8818661 61.9320343,44.0565983 C61.9402124,43.6802851 61.9371159,43.2990173 61.9223476,42.9229438 Z" id="Shape" fill="#DF1C1C"></path>
                    <path d="M57.9375429,52.7153175 C57.2803562,52.219054 56.3505923,52.3537883 55.858397,53.0140346 C55.6699034,53.2668812 55.4714056,53.5166112 55.2681438,53.7570713 C54.7369635,54.3851922 54.8119957,55.3286523 55.436073,55.8636739 C55.4716438,55.894041 55.5076116,55.9219309 55.5449292,55.9481425 C56.1653541,56.3883866 57.0276288,56.287216 57.5292725,55.6947365 C57.7719957,55.4078467 58.0086052,55.1095292 58.2338605,54.8075356 C58.7261352,54.1472894 58.5929034,53.2108618 57.9375429,52.7153175 Z" id="Shape" fill="#DF1C1C"></path>
                    <path d="M60.1202253,47.3129179 C59.3377468,47.0659849 58.5044528,47.5043909 58.2592682,48.2919395 C58.1654185,48.5928143 58.0614056,48.8951274 57.9491352,49.1912073 C57.7026009,49.8429827 57.9388133,50.5601274 58.4803155,50.944432 C58.5796438,51.014676 58.6890558,51.0742117 58.8079163,51.1194428 C59.5740386,51.4136847 60.4319464,51.0268229 60.7239764,50.2554168 C60.8572876,49.9033974 60.9809914,49.5437063 61.0928648,49.186013 C61.3378112,48.3983045 60.9025451,47.559851 60.1202253,47.3129179 Z" id="Shape" fill="#DF1C1C"></path>
                    <path d="M40.7209506,58.9954082 C39.393397,58.7555076 38.1199142,58.3469892 36.9123326,57.7772052 C36.8980408,57.7696933 36.8852575,57.7611425 36.8702511,57.75427 C36.5856845,57.6194557 36.3015944,57.4750518 36.0262382,57.3241749 C36.0252854,57.3230562 36.0235386,57.3223369 36.02203,57.3216976 C35.5168133,57.0416803 35.0237446,56.7318553 34.5447296,56.3924622 C27.5598283,51.440216 25.8803777,41.6917149 30.8010601,34.661635 C31.8710429,33.133527 33.1658841,31.8586652 34.6094399,30.8482376 C34.6272253,30.8357711 34.6450107,30.8233844 34.6626373,30.810838 C39.7495021,27.2831317 46.6566717,27.0453888 52.0581159,30.6704298 L50.898015,32.357486 C50.5754957,32.8270583 50.7739142,33.1692484 51.3385215,33.1181037 L56.3777468,32.6640346 C56.9430687,32.6128898 57.2811502,32.1207019 57.1291009,31.571216 L55.7759013,26.664041 C55.6244077,26.1139158 55.2365429,26.048067 54.913706,26.5175594 L53.7509056,28.2086112 C49.7869828,25.5304665 45.0326416,24.5092505 40.3137124,25.3328402 C39.8384292,25.4156307 39.3698155,25.5169611 38.907633,25.6349136 C38.9040601,25.6355529 38.9012017,25.6359525 38.8983433,25.6365918 C38.8804785,25.640987 38.8623755,25.6468207 38.8449871,25.6516955 C34.7757811,26.7034384 31.2254485,29.0921361 28.6920601,32.5002916 C28.6707017,32.525784 28.6487082,32.5507171 28.6285408,32.5784471 C28.5442983,32.6926436 28.460691,32.8094773 28.3788305,32.926311 C28.2449635,33.117784 28.1130021,33.3140518 27.9867575,33.5103197 C27.9709571,33.5339741 27.9588884,33.5580281 27.945073,33.5819222 C25.8544936,36.8424773 24.8461245,40.6120022 25.0190558,44.4496134 C25.0194528,44.4622397 25.0187382,44.474946 25.0190558,44.487892 C25.035809,44.8627667 25.0653455,45.2428359 25.1054421,45.6169914 C25.1075858,45.6411253 25.1129056,45.6639806 25.1169549,45.6881145 C25.1584013,46.0643477 25.2104077,46.44146 25.2755944,46.8184924 C25.9381009,50.6653737 27.7410966,54.1269914 30.4428112,56.8204795 C30.4490837,56.8267927 30.4555944,56.8336652 30.4619464,56.8402181 C30.4641695,56.8426955 30.4666309,56.8439741 30.4687747,56.8462916 C31.1946416,57.5668726 31.9841867,58.2333521 32.8343133,58.8359806 C35.0590773,60.4137948 37.5364099,61.4567473 40.1969163,61.9372678 C41.0041674,62.08327 41.7752918,61.5424147 41.9201159,60.7303326 C42.0648605,59.9176911 41.5279635,59.1409309 40.7209506,58.9954082 Z" id="Shape" fill="#DF1C1C"></path>
                    <path d="M42.5570558,31.5687387 C41.8930408,31.5687387 41.355191,32.1105529 41.355191,32.7779114 L41.355191,44.8246479 L52.3019506,50.5201706 C52.4781373,50.6119914 52.6667897,50.6552246 52.8524249,50.6552246 C53.2872146,50.6552246 53.7071567,50.4169222 53.9206609,50.0011317 C54.2251567,49.4076933 53.9947403,48.6786415 53.4051223,48.3721728 L43.7575708,43.3521598 L43.7575708,32.7779114 C43.7574914,32.1105529 43.2202768,31.5687387 42.5570558,31.5687387 Z" id="Shape" fill="#DF1C1C"></path>
                </g>
                <g id="upload" transform="translate(32.000000, 32.000000)" stroke="#FF7B39" stroke-linecap="round" stroke-linejoin="round" stroke-width="2">
                    <polyline id="Shape" points="18.4782609 15.8888889 13.6086957 11 8.73913043 15.8888889"></polyline>
                    <path d="M23.8226087,18.81 C26.2651678,17.4731035 27.4941065,14.6437642 26.8079043,11.9370663 C26.1217021,9.23036846 23.6950002,7.33517736 20.9130435,7.33333333 L19.3791304,7.33333333 C18.3700118,3.41466249 15.0603511,0.525281458 11.0548564,0.0661233981 C7.04936179,-0.393034661 3.17613805,1.67295761 1.31314025,5.26239186 C-0.549857551,8.85182612 -0.0174691242,13.2226148 2.65217391,16.2555556" id="Shape" fill="#FFFFFF"></path>
                    <path d="M13.6086957,11 L13.6086957,22" id="Shape"></path>
                    <polyline id="Shape" points="18.4782609 15.8888889 13.6086957 11 8.73913043 15.8888889"></polyline>
                </g>
                <g id="ticket_placeholder" opacity="0.05" transform="translate(0.000000, 10.000000)" fill="#000000" fill-rule="nonzero">
                    <path d="M87.4945842,11.5774599 L86.6003895,6.47667153 C85.8781368,2.36684672 81.5053474,-0.293386861 76.8303421,0.535226277 L16.0078579,11.3235766 L84.9049158,11.3235766 C85.7938421,11.3235766 86.6593,11.4136642 87.4945842,11.5774599 Z" id="Shape"></path>
                    <path d="M84.9049158,17.6952263 L5.98732105,17.6952263 C2.68593684,17.6952263 0,19.877562 0,22.5589927 L0,61.1241898 C0,63.8056204 2.68593684,65.9879562 5.98732105,65.9879562 L84.9049158,65.9879562 C88.2053421,65.9879562 90.8912789,63.8056204 90.8912789,61.1241898 L90.8912789,22.5589927 C90.8908,19.8765985 88.2053421,17.6952263 84.9049158,17.6952263 Z M28.1491737,61.0350657 L21.8146158,61.0350657 L21.8146158,55.5512847 L28.1491737,55.5512847 L28.1491737,61.0350657 Z M28.1491737,50.0670219 L21.8146158,50.0670219 L21.8146158,44.5832409 L28.1491737,44.5832409 L28.1491737,50.0670219 Z M28.1491737,39.0994599 L21.8146158,39.0994599 L21.8146158,33.6151971 L28.1491737,33.6151971 L28.1491737,39.0994599 Z M28.1491737,28.1314161 L21.8146158,28.1314161 L21.8146158,22.6471533 L28.1491737,22.6471533 L28.1491737,28.1314161 Z M74.6923211,34.7333431 L69.8175947,39.3201022 L74.2095421,54.0761606 L71.7496684,56.550438 C71.4795421,56.8211825 71.0422632,56.8211825 70.7721368,56.550438 L64.2254053,44.5822774 L58.2040789,50.556 L59.1629316,55.2636788 L57.6307789,56.8057664 C57.4272263,57.0105109 57.0967526,57.0105109 56.8951158,56.8067299 L48.2218579,48.0826861 C48.0183053,47.8779416 48.0183053,47.5464964 48.2218579,47.3427153 L49.7540105,45.7996642 L54.3485526,46.7424526 L60.2913316,40.6627445 L48.4761789,34.1210365 C48.2060526,33.8512555 48.2060526,33.4114161 48.4742632,33.139708 L50.9365316,30.6654307 L65.5094632,35.0532263 L70.1020895,30.1152701 C71.4441,28.7654015 73.5596105,28.706146 74.8269053,29.9813431 C76.0922842,31.2555766 76.0319368,33.3839562 74.6923211,34.7333431 Z" id="Shape"></path>
                </g>
                <g id="booked" transform="translate(7.000000, 4.000000)" fill-rule="nonzero">
                    <path d="M78,39.0009433 C78,17.4598873 60.538909,0 39.0004716,0 C17.461091,-2.25194975e-15 0,17.4597301 0,39.0009433 C0,60.5390122 17.461091,78 39.0004716,78 C60.538909,78 78,60.5390122 78,39.0009433 Z" id="Shape" fill="#4AA301" opacity="0.096652"></path>
                    <path d="M67.1702803,38.9527951 C67.1702803,23.3671085 54.5364343,10.7342862 38.9524539,10.7342862 C23.367791,10.7342862 10.733945,23.3669947 10.733945,38.9527951 C10.733945,54.5363206 23.367791,67.1699391 38.9524539,67.1699391 C54.5364343,67.1699391 67.1702803,54.5363206 67.1702803,38.9527951 Z" id="Shape" fill="#4AA301"></path>
                    <path d="M54.4892294,29.4985106 C53.8249487,27.7855991 52.471363,28.055975 51.0045993,28.3465978 C50.1286359,28.5291612 46.2325839,29.6695857 40.0680815,36.1697546 C37.5099182,38.8674851 35.8223722,41.0182077 34.7112944,42.6584351 C34.0325678,41.8251268 33.2549954,40.9335802 32.4384078,40.1166514 C29.9271082,37.6060342 27.1265507,35.8818617 27.0088228,35.8094051 C25.8335919,35.0909809 24.2993764,35.4606577 23.5789048,36.6349786 C22.8593432,37.8092995 23.2278825,39.3460175 24.4012935,40.0671715 C24.425294,40.0822999 26.8302405,41.5691967 28.907824,43.6473489 C31.0265838,45.7663362 32.9462869,48.6319568 32.9651688,48.659711 C33.432554,49.3624382 34.2172925,49.772495 35.042866,49.772495 C35.1845944,49.772495 35.3276878,49.7605516 35.4700986,49.7358686 C36.4444529,49.5666135 37.2271439,48.8380659 37.4657845,47.8781575 C37.4718131,47.8550669 38.4617506,45.1191175 43.6911414,39.6057012 C47.903068,35.1635513 50.711929,33.7517272 51.6851458,33.3600974 C51.694473,33.3585049 51.7011841,33.3578224 51.7138099,33.3552062 C51.7091463,33.3563437 51.7453178,33.3396229 51.8040111,33.3132337 C51.971105,33.2505593 52.0606236,33.2265587 52.0657422,33.2253075 C52.0177411,33.2372509 51.9928306,33.2402083 51.9928306,33.2402083 L51.9912381,33.2315636 C52.4415613,33.035123 53.2846519,32.6723848 53.3030788,32.66465 C54.572492,32.1431214 54.9852788,30.777706 54.4892294,29.4985106 Z" id="Shape" fill="#FFFFFF"></path>
                </g>
                <g id="manage_bookings" transform="translate(38.000000, 36.000000)" fill="#FFFFFF" stroke="#FF7B39" stroke-linecap="round" stroke-linejoin="round" stroke-width="1.6">
                    <rect id="Rectangle-path" x="0" y="3.11111111" width="16" height="10.8888889" rx="1.6"></rect>
                    <path d="M11.2,14 L11.2,1.55555556 C11.2,0.696445945 10.4836556,0 9.6,0 L6.4,0 C5.5163444,0 4.8,0.696445945 4.8,1.55555556 L4.8,14 L11.2,14 Z" id="Shape"></path>
                    <path d="M1.6,3.11111111 L14.4,3.11111111" id="Rectangle-path"></path>
                </g>
                <g id="email" transform="translate(38.000000, 37.000000)" fill="#FFFFFF" stroke="#FF7B39" stroke-linecap="round" stroke-linejoin="round" stroke-width="1.6">
                    <path d="M1.6,0 L14.4,0 C15.28,0 16,0.73125 16,1.625 L16,11.375 C16,12.26875 15.28,13 14.4,13 L1.6,13 C0.72,13 0,12.26875 0,11.375 L0,1.625 C0,0.73125 0.72,0 1.6,0 Z" id="Shape"></path>
                    <polyline id="Shape" points="16 1.625 8 7.3125 0 1.625"></polyline>
                </g>
                <g id="print" transform="translate(38.000000, 35.000000)" fill="#FFFFFF" stroke="#FF7B39" stroke-linecap="round" stroke-linejoin="round" stroke-width="1.5999999">
                    <polyline id="Shape" points="3.2 5.6 3.2 0 12.8 0 12.8 5.6"></polyline>
                    <path d="M3.2,12.8 L1.6,12.8 C0.7163444,12.8 0,12.0836556 0,11.2 L0,7.2 C-1.77635684e-16,6.3163444 0.7163444,5.6 1.6,5.6 L14.4,5.6 C15.2836556,5.6 16,6.3163444 16,7.2 L16,11.2 C16,12.0836556 15.2836556,12.8 14.4,12.8 L12.8,12.8" id="Shape"></path>
                    <rect id="Rectangle-path" x="3.2" y="9.6" width="9.6" height="6.4"></rect>
                </g>
         
</svg>