<svg xmlns="http://www.w3.org/2000/svg" version="1.1" xmlns:xlink="http://www.w3.org/1999/xlink" width="512" height="512" x="0" y="0" viewBox="0 0 512 512" style="enable-background:new 0 0 512 512" xml:space="preserve" class=""><g><path d="M504 136.26H388V8a8 8 0 0 0-8-8H132a8 8 0 0 0-8 8v128.26H8a8 8 0 0 0-8 8V504a8 8 0 0 0 8 8h496a8 8 0 0 0 8-8V144.26a8 8 0 0 0-8-8zm-488 16h108V496H16zm124-8V16h232v480h-19.43V367.46a8 8 0 0 0-8-8H167.428a8 8 0 0 0-8 8V496H140zm124 231.2h72.57V496H264zM248 496h-72.572V375.46H248zm248 0H388V152.26h108zM167.428 122.284h70.857a8 8 0 0 0 8-8V43.429a8 8 0 0 0-8-8h-70.857a8 8 0 0 0-8 8v70.855a8 8 0 0 0 8 8zm8-70.855h54.857v54.855h-54.857zm98.285 70.855h70.857a8 8 0 0 0 8-8V43.429a8 8 0 0 0-8-8h-70.857a8 8 0 0 0-8 8v70.855a8 8 0 0 0 8 8zm8-70.855h54.857v54.855h-54.857zM167.428 228.57h70.857a8 8 0 0 0 8-8v-70.856a8 8 0 0 0-8-8h-70.857a8 8 0 0 0-8 8v70.856a8 8 0 0 0 8 8zm8-70.856h54.857v54.856h-54.857zm98.285 70.856h70.857a8 8 0 0 0 8-8v-70.856a8 8 0 0 0-8-8h-70.857a8 8 0 0 0-8 8v70.856a8 8 0 0 0 8 8zm8-70.856h54.857v54.856h-54.857zm-8 177.142h70.857a8 8 0 0 0 8-8v-70.857a8 8 0 0 0-8-8h-70.857a8 8 0 0 0-8 8v70.857a8 8 0 0 0 8 8zm8-70.857h54.857v54.857h-54.857zm-114.285 70.857h70.857a8 8 0 0 0 8-8v-70.857a8 8 0 0 0-8-8h-70.857a8 8 0 0 0-8 8v70.857a8 8 0 0 0 8 8zm8-70.857h54.857v54.857h-54.857zm-76.03-70.739H40.6a8 8 0 0 0-8 8v58.8a8 8 0 0 0 8 8h58.799a8 8 0 0 0 8-8v-58.8a8.001 8.001 0 0 0-8.001-8zm-8 58.8H48.6v-42.8h42.799v42.8zm321.202 16h58.799a8 8 0 0 0 8-8v-58.8a8 8 0 0 0-8-8H412.6a8 8 0 0 0-8 8v58.8a8 8 0 0 0 8 8zm8-58.8h42.799v42.8H420.6zM221.258 442.278v-14.051a8 8 0 0 1 16 0v14.051a8 8 0 0 1-16 0zm69.482-14.05v14.051a8 8 0 0 1-16 0v-14.051a8 8 0 0 1 16 0zm-191.342-134H40.6a8 8 0 0 0-8 8v58.801a8 8 0 0 0 8 8h58.799a8 8 0 0 0 8-8v-58.801a8.001 8.001 0 0 0-8.001-8zm-8 58.8H48.6v-42.801h42.799v42.801zm321.202 16h58.799a8 8 0 0 0 8-8v-58.801a8 8 0 0 0-8-8H412.6a8 8 0 0 0-8 8v58.801a8 8 0 0 0 8 8zm8-58.8h42.799v42.801H420.6z" fill="#ffffff" opacity="1" data-original="#000000" class=""></path></g></svg>