<svg width="18" height="16" viewBox="0 0 18 16" fill="none" xmlns="http://www.w3.org/2000/svg">
<path d="M3.01713 3.05848C3.83101 3.58813 4.95063 3.40319 5.51719 2.64654C6.08826 1.88567 5.89038 0.838972 5.07655 0.305139C4.26267 -0.228733 3.14304 -0.0437869 2.57198 0.71708C2.00542 1.47791 2.20329 2.52461 3.01713 3.05848Z" fill="#999999"/>
<path d="M3.56573 12.1551L1.79861 4.20189H0L1.7941 12.4032C2.12682 14.4545 4.01535 15.972 6.23664 15.972H12.5902V14.2906H6.23213C4.90118 14.2905 3.76807 13.3825 3.56573 12.1551Z" fill="#999999"/>
<path d="M12.797 10.9276H8.40845L7.48665 7.48067C8.90304 8.22893 10.4363 8.77959 12.118 8.50636V6.71984C10.6522 6.97627 9.02445 6.48863 7.90036 5.67314L6.42103 4.597C6.21868 4.44989 5.98038 4.34479 5.73306 4.27752C5.44978 4.20185 5.14404 4.18085 4.84276 4.22707L4.82029 4.23129C3.71867 4.41206 2.98121 5.39149 3.17458 6.42136L4.39314 11.3984C4.63595 12.5881 5.74659 13.4498 7.04158 13.4498H13.2018L16.6371 15.9719L17.986 14.7109L12.797 10.9276Z" fill="#999999"/>
</svg>
