<svg width="18" height="15" viewBox="0 0 18 15" fill="none" xmlns="http://www.w3.org/2000/svg">
<path d="M16.9647 0.434528C16.6809 0.144832 16.3398 0 15.9414 0H1.4492C1.05068 0 0.70961 0.144799 0.425646 0.434528C0.14184 0.724289 0 1.07247 0 1.47934V12.723C0 13.13 0.14184 13.4782 0.425646 13.7679C0.70961 14.0577 1.05068 14.2025 1.4492 14.2025H15.9414C16.3398 14.2025 16.6809 14.0577 16.9647 13.7679C17.2485 13.4782 17.3905 13.13 17.3905 12.723V1.47934C17.3905 1.07247 17.2485 0.724289 16.9647 0.434528ZM16.231 12.7232C16.231 12.8035 16.2024 12.8726 16.145 12.9314C16.0877 12.9897 16.0197 13.0189 15.9414 13.0189H1.4492C1.37075 13.0189 1.30279 12.9897 1.24543 12.9312C1.18811 12.8724 1.1594 12.8033 1.1594 12.723V7.10126H16.2311L16.231 12.7232ZM16.231 3.55045H1.15937V1.47921C1.15937 1.39909 1.18798 1.32988 1.2454 1.2712C1.30279 1.2128 1.37075 1.18349 1.44917 1.18349H15.9413C16.0197 1.18349 16.0877 1.21268 16.145 1.2712C16.2024 1.32988 16.231 1.39909 16.231 1.47921L16.231 3.55045Z" fill="#999999"/>
<path d="M4.6375 10.6518H2.31879V11.8355H4.6375V10.6518Z" fill="#999999"/>
<path d="M9.275 10.6518H5.79693V11.8355H9.275V10.6518Z" fill="#999999"/>
</svg>
