<svg xmlns="http://www.w3.org/2000/svg" version="1.1" xmlns:xlink="http://www.w3.org/1999/xlink" width="512" height="512" x="0" y="0" viewBox="0 0 409.6 409.6" style="enable-background:new 0 0 512 512" xml:space="preserve" class=""><g><path d="M375.465 102.395h-34.13v273.07h34.13c18.77 0 34.135-15.37 34.135-34.14v-204.8c0-18.765-15.365-34.13-34.135-34.13zM273.065 102.395v-34.13c0-18.77-15.365-34.135-34.13-34.135h-68.27c-18.765 0-34.13 15.365-34.13 34.135v34.13H102.4v273.07h204.8v-273.07h-34.135zm-34.13 0h-68.27V68.26h68.27v34.135zM34.135 102.395C15.365 102.395 0 117.76 0 136.53v204.8c0 18.77 15.365 34.14 34.135 34.14h34.13V102.395h-34.13z" fill="#3a3a3a85" opacity="1" data-original="#3a3a3a85" class=""></path></g></svg>