<svg id="Layer_1" data-name="Layer 1" xmlns="http://www.w3.org/2000/svg" viewBox="0 0 1000 1000"><defs><style>.cls-1{fill:none;stroke:#6c5ffc;stroke-miterlimit:10;stroke-width:40px;}</style></defs><path class="cls-1" d="M833.28,716a20.4,20.4,0,0,0-1.36,2.78c-5.43,17.18-18.07,28.35-35.94,29-25.34.88-50.73.36-76.09.38a30,30,0,0,1-5.06-1v-7c0-33.61.64-67.22-.14-100.81-.94-40.07-9.38-78.29-33.14-111.67-6.77-9.51-14.47-18.36-22.17-28.05a70,70,0,0,1,34.38-17.06c23.42-4.22,47.2-4.85,70.48-.37,35.1,6.76,61.93,36,67.84,71.36a23.64,23.64,0,0,0,1.2,3.59Z"/><path class="cls-1" d="M492.38,789.88q-58.89,0-117.78,0c-12.27,0-23.71-2.35-33.39-10.42-10.38-8.63-16.64-19.72-16.77-33.2-.35-37.29-1.34-74.64.17-111.87,2.55-63,31.71-110.1,88.72-138.73,19.64-9.86,40.78-14.62,62.59-15.9,27.74-1.62,55.65-2.13,82.81,4.54,60.13,14.78,111.21,73,115.36,134.83,2.88,42.75,1.34,85.82,1.21,128.75,0,6-2.81,12.16-5.13,17.91-4.66,11.57-13.58,19.08-25.82,20.29-22,2.16-44,3.71-66.08,4.25-28.62.71-57.26.18-85.89.18Z"/><path class="cls-1" d="M500,209.27A113,113,0,0,1,613.26,322.55c0,62.47-51.2,113.4-113.6,113.12s-112.85-50.93-112.9-113.15A113,113,0,0,1,500,209.27Z"/><path class="cls-1" d="M340.69,499.61c-7.5,9.47-15.16,18.29-21.88,27.79a174.28,174.28,0,0,0-32,93.52c-1.91,39.8-1.22,79.74-1.65,119.62,0,2.13,0,4.27,0,6.92-3.09.31-5.84.82-8.59.82-23.2,0-46.41.19-69.61-.12-24.67-.33-40.24-16.49-40.25-41.3q0-68.64,0-137.29C166.81,519.52,204,481,254,480.24a399.81,399.81,0,0,1,54.35,3.05C320.68,484.79,331.41,491.5,340.69,499.61Z"/><path class="cls-1" d="M271.2,292.59a71.4,71.4,0,0,1,71.27,71.74c-.17,39.4-32.69,71.67-71.89,71.32a71.53,71.53,0,1,1,.62-143.06Z"/><path class="cls-1" d="M729.38,292.59a71.4,71.4,0,0,1,71.34,71.68c-.14,39.4-32.59,71.66-71.82,71.38a71.53,71.53,0,1,1,.48-143.06Z"/></svg>