<svg id="Layer_1" data-name="Layer 1" xmlns="http://www.w3.org/2000/svg" viewBox="0 0 1000 1000"><defs><style>.cls-1{fill:none;stroke:#6c5ffc;stroke-miterlimit:10;stroke-width:40px;}</style></defs><path class="cls-1" d="M467.84,228.1c8.66,3.8,12.88,10.07,13.89,19.86,7.9,76.36,21.95,151.56,45,224.88,6.08,19.36,13.41,38.33,20.53,57.34,5.21,13.91,1.64,22.71-12.34,28.1Q470.18,583.22,405.38,608c-6.73,2.57-11.87,6.4-13.81,13.67-3.08,11.6,5.68,22.41,18.68,22.37,12.18,0,24,.9,35.19,6.35,24.4,11.9,39.29,38.8,35.52,64.43-4.24,28.88-25.44,51.33-53.63,54.82-41.45,5.14-75.72-8.47-100.81-42.42-26-35.13-43.81-74.52-58.6-115.35-21.08-58.2-35.34-118.2-45.26-179.2-4.63-28.41-7.78-57-11.63-85.59a12.81,12.81,0,0,0-.93-2.57V332.12c.79-1.46,1.54-2.95,2.37-4.39a17.89,17.89,0,0,1,23.95-7.06,98.86,98.86,0,0,1,8.56,5.45c8.55,5.64,17.08,11.31,25.92,17.17.6-1.92,1.06-3.15,1.37-4.41,3.43-13.68,6.88-27.35,10.23-41,1.79-7.33,5.78-12.53,13.23-14.74,5.9-1.76,11.11-.2,16,3.08,10.38,6.93,20.78,13.84,31.73,21.12,4-16,7.64-31.15,11.54-46.24,3.57-13.83,16.63-19,28.62-11.28C394.89,257,405.91,264.56,417,272c1.64,1.09,3.36,2.05,5.22,3.18,7.84-11.73,15.51-22.88,22.81-34.28,3.54-5.52,7.57-10.2,13.73-12.75ZM427.12,410.25c.07-13.31-11.79-22.28-23.35-18.37-9,3.05-17.86,6.88-26.75,10.44-21.62,8.63-43.26,17.22-64.82,26-9.59,3.91-14,13.94-10.49,23.12s13.46,14.27,23,10.55q45.9-17.92,91.57-36.49C423.38,422.62,426.63,416.6,427.12,410.25Zm-1.82,53c-1.43.44-4.54,1.17-7.47,2.34q-42.91,17.08-85.77,34.3c-11.18,4.49-16.06,14.27-12.18,24.19s14.25,13.8,25.34,9.44q23.34-9.18,46.59-18.52c14.13-5.64,28.31-11.15,42.33-17.06a18,18,0,0,0,10.74-20.25C443,469.28,435.57,463.24,425.3,463.28Z"/><path class="cls-1" d="M789,623.2c-.51,27.48-8.7,47.79-24.82,64.75-2.48,2.61-6,4.45-9.43,5.9-13.65,5.85-27.42,11.4-41.15,17C644.79,739.22,575.92,767.37,507.24,796c-13.33,5.56-26.55,10.48-41.11,10.94-3.32.11-6.69.22-7.78-3.83s2.07-5.57,4.94-7.09c62.65-33.35,73.08-114.17,21-162.7-7.87-7.34-6.75-14.18,3.06-17.94,65.79-25.29,131.69-50.3,197.35-75.94,17.57-6.86,34-3.35,49.67,3.73C770.22,559.35,786.84,588.76,789,623.2Z"/></svg>