<svg id="Layer_1" data-name="Layer 1" xmlns="http://www.w3.org/2000/svg" viewBox="0 0 1000 1000"><defs><style>.cls-1{fill:none;}.cls-1,.cls-2{stroke:#6c5ffc;stroke-miterlimit:10;stroke-width:40px;}.cls-2{fill:#fff;}</style></defs><path class="cls-1" d="M795.78,415.79v4.39q0,156.12-.06,312.23c0,29.74-19,54.31-47.37,61.73a69.9,69.9,0,0,1-17.6,2.11q-230.75.18-461.49.06c-36.6,0-64.88-27.31-64.95-63.24q-.33-156.78-.08-313.55c0-1.09.11-2.17.19-3.73ZM458.8,619.4c-16.39-16.46-32.32-32.58-48.39-48.55-9.29-9.23-22.05-9.5-30.65-1s-8.42,21.46.74,30.71q30.45,30.74,61.14,61.25c9.69,9.63,20.72,10.09,31.17,1.15q73-62.49,145.82-125.19C628.72,529.13,630,516,622,506.77s-20.9-9.44-31.18-.67c-12.23,10.42-24.39,20.93-36.59,31.4Z"/><path class="cls-1" d="M394.37,245.65H605.64c0-6.84-.08-13.4,0-20,.18-12.83,9.29-22.19,21.35-22,11.72.12,20.65,9.44,20.86,21.91.11,6.56,0,13.13,0,20.4h7.6c25.08,0,50.16-.08,75.25,0,37.51.16,64.84,27.56,65,65.19.1,20.27,0,40.54,0,61.3H204.6c-.12-1.7-.36-3.6-.36-5.49,0-18.74-.1-37.48,0-56.21.21-37.12,27.68-64.61,64.78-64.78,25.08-.12,50.17,0,75.25,0h7.84c0-6.63,0-12.73,0-18.83.07-14,8.74-23.56,21.26-23.48s20.92,9.7,21,23.79C394.39,233.35,394.37,239.26,394.37,245.65Z"/><path class="cls-2" d="M458.8,619.4l95.38-81.9c12.2-10.47,24.36-21,36.59-31.4,10.28-8.77,23.23-8.44,31.18.67s6.77,22.36-3.32,31.05Q545.81,600.51,472.81,663c-10.45,8.94-21.48,8.48-31.17-1.15Q411,631.35,380.5,600.61c-9.16-9.25-9.33-22.15-.74-30.71s21.36-8.28,30.65,1C426.48,586.82,442.41,602.94,458.8,619.4Z"/></svg>