<svg id="Layer_1" data-name="Layer 1" xmlns="http://www.w3.org/2000/svg" viewBox="0 0 1080 1080"><defs><style>.cls-1{fill:none;stroke:#6c5ffc;stroke-miterlimit:10;stroke-width:40px;}</style></defs><path d="M461.84,121c4,1.25,8,2.36,11.9,3.76a62.59,62.59,0,0,1,41.68,58.55q.27,177.57,0,355.14a62.33,62.33,0,0,1-62.31,62.43q-127.05.45-254.11,0a62.37,62.37,0,0,1-62.3-62.44q-.36-177.57,0-355.13c0-29.09,20.15-53.57,48.47-60.62,1.74-.43,3.41-1.12,5.11-1.69Zm28.42,240.37q0-85.64,0-171.27c0-29.16-14.55-43.83-43.47-43.84H205.28c-28.59,0-43.43,14.72-43.44,43.08V532.67c0,28,14.95,43.06,42.68,43.06H447.61c27.42,0,42.64-15.09,42.65-42.3Q490.29,447.41,490.26,361.37Z"/><path d="M945,875.74c-4.11,9.26-7,19.34-12.6,27.61-11.46,17-28.53,25.81-48.93,25.89q-127.85.5-255.69,0c-33.72-.15-61.48-27.84-61.57-61.5q-.47-178.35,0-356.71c.09-33.66,27.87-61.33,61.58-61.47q127.85-.54,255.7,0c28.29.1,52.47,20.06,59.63,47.66.52,2,1.25,3.92,1.88,5.88ZM919.74,689.81q0-86,0-172.06c0-28.06-14.86-43.06-42.66-43.06H634c-27.47,0-42.66,15-42.66,42.27q0,172.45,0,344.91c0,27.23,15.2,42.28,42.66,42.28q121.54,0,243.09,0c27.77,0,42.66-15,42.66-43.07Q919.75,775.45,919.74,689.81Z"/><path d="M945,345.21c-4.11,9.26-7,19.34-12.6,27.61-11.46,17-28.54,25.81-48.93,25.89q-127.86.5-255.71,0c-33.72-.15-61.28-27.85-61.56-61.52q-.63-77.34,0-154.69c.2-28.55,20.39-52.85,48.42-59.83,1.74-.43,3.41-1.12,5.12-1.69H891.32c1.69.57,3.35,1.24,5.08,1.69,20.26,5.3,34.8,17.48,43.37,36.55,2.22,4.93,3.51,10.28,5.23,15.44ZM755.31,373.63q62,0,123.9,0c24.66,0,40.47-15.82,40.51-40.46q.09-73,0-146c0-25.2-15.68-40.86-40.88-40.87q-123.11-.06-246.22,0c-25.72,0-41.27,15.56-41.29,41.25q-.06,72.21,0,144.42c0,26.23,15.45,41.66,41.67,41.68Q694.16,373.67,755.31,373.63Z"/><path class="cls-1" d="M945,174.68c-1.72-5.16-3-10.51-5.23-15.44-8.57-19.07-23.11-31.25-43.37-36.55-1.73-.45-3.39-1.12-5.08-1.69H945Z"/><path d="M326.65,651.53q61.17,0,122.34,0c39.53.05,66.46,26.87,66.52,66.32q.11,72.61,0,145.23c-.06,39.41-27,66.29-66.53,66.32q-123.14.06-246.27,0c-39,0-66.05-27.06-66.11-65.93q-.12-73,0-146c.06-38.89,27.12-65.85,66.13-65.91Q264.68,651.45,326.65,651.53Zm-.58,252.63q61.15,0,122.32,0c26.33,0,41.84-15.37,41.86-41.49q.06-72.21,0-144.42c0-26.09-15.54-41.44-41.89-41.44q-122.33,0-244.65,0c-26.35,0-41.84,15.35-41.86,41.47q0,72.21,0,144.42c0,26.11,15.53,41.44,41.89,41.46Q264.91,904.2,326.07,904.16Z"/></svg>