<svg id="Layer_1" data-name="Layer 1" xmlns="http://www.w3.org/2000/svg" viewBox="0 0 1000 1000"><defs><style>.cls-1{fill:none;stroke:#6c5ffc;stroke-miterlimit:10;stroke-width:40px;}</style></defs><path class="cls-1" d="M480.19,189.84c11.9,2,24,3,35.66,6C610.49,220.52,669.69,281,694.41,375.1c9.11,34.68,8.44,69.93.31,104.93-.27,1.18-.54,2.36-.88,3.52a16.25,16.25,0,0,1-.9,1.95c-54.46-8.2-103.37,5.06-145.47,40.52s-63,81.78-64.92,136.51c-9.19,2.28-275.61,3.72-292.31,1.52l93.3-80.62C272.7,565.8,261,549.5,252.09,531.81c-41.45-82.29-27.84-187.17,32.22-257,38.16-44.39,85.71-72.11,143.49-82,6.92-1.18,13.92-1.94,20.88-2.9ZM445.83,373.68c3.21-13,11.62-19.82,21.9-17.55,7.81,1.73,12.74,6.69,14.54,14.49,1.64,7.11-1.65,14.63-8.79,19.05-13.16,8.15-22.81,19.35-25.4,34.52-2.23,13.12-1.74,26.71-2.46,40.25h37c0-7.23.46-14.1-.1-20.88-.94-11.26,3.33-18.77,12.95-25.08,21.59-14.16,29.22-42.2,19.08-65.83a54.33,54.33,0,0,0-60.75-32c-25.39,5-45.27,29.21-43.38,53.07Zm36.35,163.58V501.67h-35.6v35.59Z"/><path class="cls-1" d="M809.76,678.05c-1.88,8.83-3.24,17.81-5.71,26.47A145.2,145.2,0,0,1,656.28,809.94c-67.32-3.6-123.45-53.67-135.12-120.53-16.58-94.93,63.05-179.79,158.7-169.13,67.81,7.55,120.83,59.89,128.8,127.11a27.42,27.42,0,0,0,1.1,4Zm-92.32-75.7-72.88,72.88-34-34.82-24.24,24.05,60.31,60.3,96.67-96.63Z"/></svg>