<svg id="Layer_1" data-name="Layer 1" xmlns="http://www.w3.org/2000/svg" viewBox="0 0 1000 1000"><defs><style>.cls-1{fill:none;stroke:#6c5ffc;stroke-miterlimit:10;stroke-width:40px;}</style></defs><path class="cls-1" d="M217.1,361.48q129.54,48.58,259.13,97c4.85,1.8,6.16,4,6.16,9q-.24,152.41-.12,304.82v6.78L217.1,679.68ZM358.52,680.82c0-11.62-.17-22.58.1-33.53.08-3.48-1.28-4.84-4.3-5.83-5.05-1.65-10-3.68-15-5.54l-51.54-19.28c0,12.14-.1,23.66.14,35.17,0,1.25,1.74,3,3.08,3.6,6.6,2.73,13.34,5.15,20,7.66Z"/><path class="cls-1" d="M517.62,778.84v-6q0-153-.11-306c0-4.65,1.43-6.62,5.73-8.19,25.37-9.27,50.62-18.88,75.92-28.36,2-.77,4.12-1.41,6.69-2.27v88.3l14.84-5.54c17-6.37,34-12.85,51.16-19,3.7-1.33,5-3.06,5-7.07-.2-26.33-.08-52.66-.14-79,0-2.76.21-4.61,3.44-5.81,33.26-12.31,66.45-24.84,99.66-37.29a26.22,26.22,0,0,1,3-.7v5.24q0,153.55.11,307.1c0,4.25-1.37,6-5.19,7.46q-127.58,47.63-255.07,95.47C521.13,777.75,519.58,778.2,517.62,778.84Z"/><path class="cls-1" d="M782.41,326.25c-28.24,10.6-55.06,20.68-81.89,30.72-7.91,3-15.94,8.35-23.75,8.07-8-.3-15.88-6.08-23.75-9.6q-38.76-17.31-77.46-34.78a10.46,10.46,0,0,0-9.32-.17c-20.39,8.86-40.89,17.48-61.35,26.18-1.34.57-2.64,1.22-4.77,2.21l105.59,43.6-12.57,4.73c-29.75,11.18-59.49,22.41-89.3,33.44a11.3,11.3,0,0,1-7.26.19Q359.21,379.54,222,328c-1-.38-2-.89-3.86-1.73,1.94-.95,3.24-1.71,4.63-2.23Q359.48,272.68,496.3,221.49a11.31,11.31,0,0,1,7.27,0Q640.4,272.62,777.15,324C778.47,324.49,779.74,325.1,782.41,326.25Z"/></svg>