<svg id="Layer_1" data-name="Layer 1" xmlns="http://www.w3.org/2000/svg" viewBox="0 0 1000 1000"><defs><style>.cls-1{fill:#fff;}.cls-1,.cls-3{stroke:#6c5ffc;stroke-miterlimit:10;stroke-width:40px;}.cls-2{fill:#6c5ffc;}.cls-3{fill:none;}</style></defs><path class="cls-1" d="M257.67,191.91H669.72c27.39,10.4,34.28,20.51,34.28,50.38,0,36.83-.17,73.67.13,110.51.07,7.55-2.55,12.58-8.23,17.42q-90.46,77.16-180.61,154.7a34.56,34.56,0,0,0-11.37,17.92q-8.1,30.72-16.56,61.36a17.2,17.2,0,0,1-4.43,7.45c-12.95,12.49-14.45,30.71-3.3,43.65,11,12.74,29.1,14.05,43.2,3.38a17.27,17.27,0,0,1,8-3.39c17.48-2.08,35-4,52.51-5.61,13.88-1.24,26.56-4.41,36.69-15.12,6.15-6.5,13.54-11.84,20.4-17.69,5.6-4.76,6.82-4.62,11.54,1.18,11,13.47,28,16,42.41,6.43,2-1.29,5.66-2.79,6.75-1.92,1.75,1.38,2.75,4.67,2.76,7.15q.23,67,.07,133.94c-.11,26.45-17.38,43.33-43.9,43.34Q518,807,376,807c-10.86,0-14-3.08-14-13.81q0-42.95,0-85.89c0-24.24-14.27-38.57-38.33-38.59q-42,0-84.09,0c-13.54,0-16.06-2.53-16.06-16.15q0-207.21,0-414.42c0-3,0-6,.31-9,1.45-14.66,8.83-25.5,21.73-32.42C249.32,194.66,253.6,193.48,257.67,191.91Z"/><path class="cls-2" d="M652.68,436.75c3,2,6.25,3.34,8.31,5.71q28.51,32.84,56.66,66c4.9,5.75,4.45,11.22-1.37,16.23q-50,43-100.18,85.93c-6,5.13-11.49,4.6-16.7-1.33q-28.33-32.22-56.55-64.53c-5.75-6.59-5.41-11.75,1.28-17.51q50-43,100.23-85.88C646.52,439.53,649.4,438.54,652.68,436.75Z"/><path class="cls-2" d="M756.19,490.61c8.08,10.87,11.59,22.53,8.58,35.76a39.65,39.65,0,0,1-12.9,21.82q-33.64,29-67.43,57.87c-5.87,5-11.8,4.8-15.84-.15s-3.1-10.57,2.8-15.63c21.7-18.66,43.47-37.24,65.11-56,11.14-9.63,12-21.29,2.34-32.6-20.23-23.77-40.62-47.42-60.91-71.15-6.84-8-6.52-12.46,1.32-19.23,11.37-9.81,22.7-19.65,34.19-29.31,22.52-18.92,52.63-16.68,72.75,4.82,15.15,16.18,21.48,34.35,14.55,56.07-2.94,9.2-8.48,16.69-15.78,22.94C775.43,474.05,765.9,482.26,756.19,490.61Z"/><path class="cls-3" d="M285.25,689.17c13.2,0,26.4,0,39.6,0,10.66,0,16.47,5.52,16.53,16.17q.22,40.49-.1,81c0,2.34-1.66,5.58-3.55,6.67-1.33.77-5-.77-6.54-2.32Q285.41,745.28,240,699.48c-1.66-1.68-3.1-5.35-2.35-7.1s4.4-3,6.81-3.07C258.05,689,271.65,689.17,285.25,689.17Z"/><path class="cls-2" d="M502.43,646.82c-3.18-2.59-7.33-4.35-8.35-7.22-1.12-3.17-.7-9.39,1.37-10.76,10.55-7,11.44-18.17,14.34-28.55,3.33-11.93,6.3-23.95,9.72-35.85.64-2.22,2.53-5.46,4.16-5.67,2.16-.27,5.27,1.42,6.89,3.24q25.14,28.22,49.81,56.86c1.58,1.84,2.79,5.19,2.2,7.29-.44,1.57-4,3-6.26,3.23-17.06,2.08-34.14,4.09-51.25,5.62a20.69,20.69,0,0,0-12.8,5.49C509.7,642.81,506.42,644.31,502.43,646.82Z"/><line class="cls-3" x1="278.5" y1="250.5" x2="649.5" y2="249.5"/><line class="cls-3" x1="279" y1="298.5" x2="650" y2="297.5"/><line class="cls-3" x1="279" y1="350.5" x2="564.5" y2="349.5"/><line class="cls-3" x1="599" y1="349.5" x2="656.5" y2="349.5"/><line class="cls-3" x1="574" y1="395.62" x2="353.17" y2="398.27"/><line class="cls-3" x1="326.48" y1="398.5" x2="282.01" y2="398.88"/></svg>