<svg id="Layer_1" data-name="Layer 1" xmlns="http://www.w3.org/2000/svg" viewBox="0 0 1000 1000"><defs><style>.cls-1{fill:none;stroke:#6c5ffc;stroke-miterlimit:10;stroke-width:40px;}</style></defs><path class="cls-1" d="M201.9,273.93c4.83-13.36,14.62-18,28.4-17.61,18.75.58,37.52.14,56.29.15,15.31,0,21.92,4.85,26.8,19.51q9.21,27.64,18.45,55.27c3.8,11.38,7.9,14.34,19.82,14.34q174.87,0,349.74,0c3.45,0,7-.09,10.34.74,12.82,3.24,19.29,16.16,14.88,29.61q-11.18,34.11-22.6,68.13Q686.52,496.66,669,549.2c-4.59,13.74-11.38,18.7-25.75,18.7H413.36c-13.43,0-16.71,2.54-20,15.43-1.16,4.54-2.44,9-3.44,13.62-1.8,8.21,2.77,14.48,11.17,15.39a56.54,56.54,0,0,0,6.25.12q128.73,0,257.48.07a38,38,0,0,1,11.78,1.4c10.12,3.34,15.79,13.55,14.21,24.42-1.45,9.91-10.14,17.72-20.45,18.33-1.38.08-2.78.09-4.17.09q-131.09,0-262.17,0c-28.92,0-51.64-18.2-57.71-46a55.88,55.88,0,0,1,.85-26.31c10.47-40.19,9.75-37.27-3.12-75.73q-32.54-97.17-64.83-194.44c-3.37-10.11-7.77-13.24-18.44-13.26-10.42,0-20.87-.42-31.27.11-13.73.69-23.09-4.63-27.6-17.83Z"/><path class="cls-1" d="M424.16,723.44a44.41,44.41,0,1,1-44.36-44.22A44.32,44.32,0,0,1,424.16,723.44Z"/><path class="cls-1" d="M646.79,679.22a44.41,44.41,0,0,1,0,88.82,44.41,44.41,0,1,1,0-88.82Z"/></svg>