<svg id="Layer_1" data-name="Layer 1" xmlns="http://www.w3.org/2000/svg" viewBox="0 0 1000 1000"><defs><style>.cls-1{fill:none;stroke:#6c5ffc;stroke-miterlimit:10;stroke-width:40px;}</style></defs><path class="cls-1" d="M544,745c-2.52-2.14-5.4-4-7.49-6.45-55.3-65.83-110.9-131.4-169.59-194.27a17.34,17.34,0,0,1-5.07-12.88c.22-12.75.05-25.51.08-38.28,0-10.05,4.13-14,14.36-14.1,19.45-.28,39,.06,58.34-1.19,22.37-1.45,43.74-7,62.19-20.72a64.54,64.54,0,0,0,23.76-33.28,28.49,28.49,0,0,0,.57-3.24H376.94c-11.74,0-15-3.29-15-15.08,0-9.57,0-19.14,0-28.71,0-10.24,3.61-13.85,13.81-13.86q67.25,0,134.49,0h6.35a57.2,57.2,0,0,0-23.88-24.85c-17.23-9.76-36.14-13.29-55.54-14-19.92-.72-39.88-.39-59.82-.49-11.75-.06-15.41-3.68-15.41-15.45,0-13.24-.05-26.48,0-39.72,0-9.54,3.88-13.45,13.31-13.45q142.62,0,285.25,0c9.14,0,13.1,3.89,13.23,13.12q.22,15.78,0,31.58c-.13,9.21-4,12.95-13.26,13-24.25.06-48.5,0-72.75,0H582c3.82,6.54,7.82,12.13,10.49,18.3,3.84,8.87,6.92,18.09,9.91,27.29,1.09,3.33,2.24,4.82,6.09,4.77,17.38-.25,34.77-.14,52.16-.1,10,0,13.61,3.64,13.66,13.51,0,10.53.09,21.06,0,31.58-.09,8.57-4.09,12.51-12.72,12.54-17.39.07-34.78.1-52.16,0-3.43,0-4.91.71-5.59,4.45-5.57,30.54-19.76,56.32-43.45,76.58-21.2,18.13-46,28.92-73,34.74-7.45,1.61-15,2.8-23.12,4.3,1.42,1.65,2.59,3.08,3.83,4.43C521.9,603.31,572.3,664.49,622.63,725.73c6,7.35,4.72,13.34-4,19.29Z"/></svg>