<svg id="Layer_1" data-name="Layer 1" xmlns="http://www.w3.org/2000/svg" viewBox="0 0 1000 1000"><defs><style>.cls-1{fill:none;stroke:#6c5ffc;stroke-miterlimit:10;stroke-width:40px;}</style></defs><path class="cls-1" d="M197.85,522.56v-13c2.64-10,7-19,14.44-26.5Q331.68,363.83,451,244.48a47,47,0,0,1,34.38-14.38c60.77-.06,121.54-.25,182.31.08,27.21.14,45.77,19.26,45.83,46.44.14,60.37,0,120.75,0,181.13,0,13.64-4.7,25.3-14.38,35Q579.81,612,460.35,731.19A52,52,0,0,1,441.71,743c-18.66,6.62-34.55.68-48.2-13q-86.89-87.07-174-173.94C209.75,546.38,201,536.37,197.85,522.56ZM558.54,352.3a33.27,33.27,0,0,0,33.07,32.95c18.16,0,33.51-15.46,33.26-33.5a33.66,33.66,0,0,0-33.22-32.95A33.29,33.29,0,0,0,558.54,352.3Z"/><path class="cls-1" d="M500.84,752.64c2-1.64,3.93-3,5.6-4.67q118.09-118,236.23-236c10.43-10.39,15.24-22.09,15.18-36.82-.29-64.11-.1-128.22-.08-192.34v-7.51c19.53-2,39.87,14.74,43.36,35.33a67.2,67.2,0,0,1,.93,11.15c.06,59.79,0,119.57.09,179.36,0,14.36-4.88,26.34-15,36.49q-109,108.79-217.86,217.69C548.75,775.75,520.58,774.88,500.84,752.64Z"/></svg>