<svg id="Layer_1" data-name="Layer 1" xmlns="http://www.w3.org/2000/svg" viewBox="0 0 1000 1000"><defs><style>.cls-1{fill:none;stroke:#6c5ffc;stroke-miterlimit:10;stroke-width:40px;}</style></defs><path class="cls-1" d="M562.5,796.32h-125c-13.3-4.84-19.84-14.19-21.32-28.43-2-19.35-5.45-38.54-8.14-57.81a8.35,8.35,0,0,0-4.86-7c-10.32-5.6-20.46-11.54-30.47-17.67a8.16,8.16,0,0,0-8.44-.73c-18.88,7.76-37.85,15.29-56.82,22.84-16.23,6.47-28.12,2.52-36.81-12.43q-27.17-46.73-54.13-93.57c-8.66-15-6-28,7.68-38.68,16-12.47,31.87-25,47.93-37.32,2.78-2.12,3.62-4.29,3.53-7.75-.29-11.74-.33-23.5,0-35.24.11-3.71-.82-6-3.76-8.21-16.06-12.33-32-24.86-47.92-37.34-13.41-10.5-16.11-23.49-7.66-38.19q27.09-47.12,54.39-94.09c8.35-14.36,20.93-18.56,36.48-12.36,19,7.55,37.94,15.08,56.83,22.83,3.36,1.38,5.79,1.27,9-.71,9.46-5.92,19.07-11.65,28.93-16.86,4-2.14,5.85-4.72,6.44-9.09,2.66-19.86,5.63-39.68,8.34-59.54,2.19-16.1,12.21-25.22,28.42-25.26q55-.09,110,0c16.17,0,26.1,9.17,28.33,25.33,2.82,20.42,5.76,40.83,9,61.19a10.46,10.46,0,0,0,4.53,6.29c10,6.17,20.36,11.72,30.33,17.92,3.21,2,5.65,2,9,.65,18.71-7.65,37.51-15.1,56.3-22.58C709,286,720.87,290,729.72,305.22q27,46.5,53.8,93.09c8.66,15,6.07,28.09-7.52,38.73-16,12.48-31.86,25-47.91,37.34a8.26,8.26,0,0,0-3.69,7.68q.44,17.9,0,35.82a8.26,8.26,0,0,0,3.65,7.69c16.06,12.33,32,24.85,47.92,37.33,13.63,10.66,16.23,23.67,7.58,38.7q-26.84,46.6-53.8,93.11C720.88,710,709,714,692.55,707.49c-19-7.56-37.94-15.06-56.82-22.82-3.25-1.33-5.52-1-8.45.78-10,6.13-20.34,11.75-30.32,17.92-2.07,1.29-4.21,4-4.58,6.26-3.25,20.56-5.79,41.23-9.27,61.74a35.59,35.59,0,0,1-7,16C572.87,791.38,567.15,793.41,562.5,796.32Zm36.17-296.24a98.66,98.66,0,0,0-197.32-.44c-.32,54.57,44.06,99.08,98.73,99A98.59,98.59,0,0,0,598.67,500.08Z"/></svg>